<svg width="201" height="270" viewBox="0 0 201 270" fill="none" xmlns="http://www.w3.org/2000/svg">
<path d="M11.3604 180.37H0L4.21119 195.185L0 210H11.2625L11.3604 193.791V180.37Z" fill="#103C91"/>
<path d="M188.889 180.37H200.151L195.94 195.185L200.151 210H188.889V193.791L188.889 180.37Z" fill="#103C91"/>
<g filter="url(#filter0_d_409_60835)">
<path d="M11.1111 52.7215L99.7679 10L188.889 52.7215V216.751L100.232 260L11.1111 216.751V52.7215Z" fill="white"/>
</g>
<path d="M16.6665 57.5972L99.8411 17.4074L183.451 57.5972V211.907L100.277 252.593L16.6665 211.907V57.5972Z" fill="#E8EFF5"/>
<path d="M40.543 163.704V155.804H46.2097C51.0097 155.804 53.6764 152.504 53.6764 148.637C53.6764 144.737 51.043 141.47 46.2097 141.47H35.8097V163.704H40.543ZM45.5764 151.637H40.543V145.637H45.5764C47.443 145.637 48.843 146.77 48.843 148.637C48.843 150.47 47.443 151.637 45.5764 151.637Z" fill="#0F4CC0"/>
<path d="M74.6105 163.704L69.6105 155.237C72.0105 154.67 74.4771 152.57 74.4771 148.637C74.4771 144.504 71.6438 141.47 67.0105 141.47H56.6105V163.704H61.3438V155.804H64.8105L69.1771 163.704H74.6105ZM66.3105 151.637H61.3438V145.637H66.3105C68.2105 145.637 69.6438 146.77 69.6438 148.637C69.6438 150.504 68.2105 151.637 66.3105 151.637Z" fill="#0F4CC0"/>
<path d="M88.5631 164.104C95.2964 164.104 100.196 159.304 100.196 152.604C100.196 145.904 95.2964 141.104 88.5631 141.104C81.8631 141.104 76.9631 145.904 76.9631 152.604C76.9631 159.304 81.8631 164.104 88.5631 164.104ZM88.5631 159.904C84.4631 159.904 81.8297 156.737 81.8297 152.604C81.8297 148.437 84.4631 145.304 88.5631 145.304C92.6631 145.304 95.3297 148.437 95.3297 152.604C95.3297 156.737 92.6631 159.904 88.5631 159.904Z" fill="#0F4CC0"/>
<path d="M108.251 163.704V154.504H119.018V150.337H108.251V145.637H119.251V141.47H103.518V163.704H108.251Z" fill="#0F4CC0"/>
<path d="M127.294 163.704V141.47H122.561V163.704H127.294Z" fill="#0F4CC0"/>
<path d="M145.841 163.704V159.537H136.441V141.47H131.708V163.704H145.841Z" fill="#0F4CC0"/>
<path d="M164.889 163.704V159.537H153.889V154.504H164.656V150.337H153.889V145.637H164.889V141.47H149.156V163.704H164.889Z" fill="#0F4CC0"/>
<path d="M89.4319 230H82.4039V228.432C86.2259 225.604 87.3459 224.652 87.3459 223.504C87.3459 222.678 86.6039 222.286 85.8339 222.286C84.7699 222.286 83.9579 222.706 83.3279 223.364L82.1939 222.048C83.1039 220.998 84.4899 220.522 85.7919 220.522C87.7939 220.522 89.3619 221.642 89.3619 223.504C89.3619 225.1 88.0459 226.486 85.6239 228.25H89.4319V230ZM95.3204 230.168C92.6464 230.168 91.4564 227.746 91.4564 225.338C91.4564 222.93 92.6464 220.522 95.3204 220.522C97.9944 220.522 99.1844 222.93 99.1844 225.338C99.1844 227.746 97.9944 230.168 95.3204 230.168ZM95.3204 228.404C96.6504 228.404 97.1544 227.06 97.1544 225.338C97.1544 223.616 96.6644 222.286 95.3204 222.286C93.9904 222.286 93.4864 223.616 93.4864 225.338C93.4864 227.06 93.9904 228.404 95.3204 228.404ZM108.188 230H101.16V228.432C104.982 225.604 106.102 224.652 106.102 223.504C106.102 222.678 105.36 222.286 104.59 222.286C103.526 222.286 102.714 222.706 102.084 223.364L100.95 222.048C101.86 220.998 103.246 220.522 104.548 220.522C106.55 220.522 108.118 221.642 108.118 223.504C108.118 225.1 106.802 226.486 104.38 228.25H108.188V230ZM114.021 230.168C112.397 230.168 111.221 229.636 110.423 228.768L111.529 227.382C112.159 228.04 113.027 228.404 114.007 228.404C115.113 228.404 115.743 227.774 115.743 227.018C115.743 226.192 115.127 225.632 114.063 225.632C113.293 225.632 112.663 225.856 112.103 226.388L110.717 226.01V220.662H117.129V222.412H112.705V224.694C113.153 224.246 113.909 223.91 114.763 223.91C116.345 223.91 117.759 225.044 117.759 226.934C117.759 228.908 116.275 230.168 114.021 230.168Z" fill="#0F4CC0"/>
<path d="M188.981 176.667H11.1109V206.296H188.981V176.667Z" fill="#0F4CC0"/>
<path d="M36.18 196.111C39.4698 196.111 41.7522 194.033 41.7522 190.869C41.7522 187.706 39.4698 185.612 36.18 185.612H32.0402V196.111H36.18ZM36.18 194.144H34.2754V187.58H36.18C38.3365 187.58 39.4698 189.012 39.4698 190.869C39.4698 192.648 38.2578 194.144 36.18 194.144Z" fill="white"/>
<path d="M51.0829 196.111V194.144H45.8885V191.767H50.9727V189.799H45.8885V187.58H51.0829V185.612H43.6533V196.111H51.0829Z" fill="white"/>
<path d="M56.8756 196.3C59.709 196.3 61.0784 194.852 61.0784 192.931C61.0784 189.012 55.0497 190.13 55.0497 188.461C55.0497 187.831 55.5849 187.406 56.5451 187.406C57.6155 187.406 58.7488 187.769 59.5988 188.556L60.8423 186.919C59.8034 185.958 58.4182 185.455 56.7497 185.455C54.2784 185.455 52.7673 186.903 52.7673 188.65C52.7673 192.601 58.8117 191.326 58.8117 193.183C58.8117 193.781 58.2136 194.348 56.9858 194.348C55.5377 194.348 54.3886 193.703 53.6488 192.931L52.4367 194.631C53.4127 195.623 54.8608 196.3 56.8756 196.3Z" fill="white"/>
<path d="M65.1334 196.111V185.612H62.8982V196.111H65.1334Z" fill="white"/>
<path d="M72.6167 196.316C74.5214 196.316 76.0167 195.529 77.0871 194.332V190.303H72.0816V192.255H74.8519V193.514C74.4269 193.907 73.5454 194.317 72.6167 194.317C70.7121 194.317 69.3269 192.853 69.3269 190.869C69.3269 188.886 70.7121 187.422 72.6167 187.422C73.7343 187.422 74.6316 188.052 75.1038 188.792L76.9612 187.784C76.1742 186.541 74.8047 185.439 72.6167 185.439C69.5473 185.439 67.0288 187.548 67.0288 190.869C67.0288 194.175 69.5473 196.316 72.6167 196.316Z" fill="white"/>
<path d="M88.5736 196.111V185.612H86.3384V192.207L81.4745 185.612H79.1763V196.111H81.4115V189.264L86.4171 196.111H88.5736Z" fill="white"/>
<path d="M99.4585 196.111L97.0974 192.113C98.2307 191.845 99.3956 190.854 99.3956 188.996C99.3956 187.044 98.0576 185.612 95.8696 185.612H90.9585V196.111H93.1937V192.381H94.8307L96.8928 196.111H99.4585ZM95.5391 190.413H93.1937V187.58H95.5391C96.4363 187.58 97.1131 188.115 97.1131 188.996C97.1131 189.878 96.4363 190.413 95.5391 190.413Z" fill="white"/>
<path d="M106.126 196.3C109.321 196.3 110.864 194.521 110.864 191.908V185.612H108.582V191.845C108.582 193.309 107.747 194.317 106.126 194.317C104.505 194.317 103.655 193.309 103.655 191.845V185.612H101.388V191.924C101.388 194.506 102.931 196.3 106.126 196.3Z" fill="white"/>
<path d="M116.978 196.3C119.811 196.3 121.18 194.852 121.18 192.931C121.18 189.012 115.152 190.13 115.152 188.461C115.152 187.831 115.687 187.406 116.647 187.406C117.717 187.406 118.851 187.769 119.701 188.556L120.944 186.919C119.905 185.958 118.52 185.455 116.852 185.455C114.38 185.455 112.869 186.903 112.869 188.65C112.869 192.601 118.914 191.326 118.914 193.183C118.914 193.781 118.316 194.348 117.088 194.348C115.64 194.348 114.491 193.703 113.751 192.931L112.539 194.631C113.515 195.623 114.963 196.3 116.978 196.3Z" fill="white"/>
<path d="M132.445 196.111V185.612H130.194V189.736H125.235V185.612H123V196.111H125.235V191.704H130.194V196.111H132.445Z" fill="white"/>
<path d="M135.804 196.284C136.497 196.284 137.079 195.702 137.079 195.009C137.079 194.317 136.497 193.734 135.804 193.734C135.112 193.734 134.529 194.317 134.529 195.009C134.529 195.702 135.112 196.284 135.804 196.284Z" fill="white"/>
<path d="M142.604 196.3C144.162 196.3 145.106 195.623 145.61 194.915L144.304 193.703C143.942 194.206 143.391 194.521 142.698 194.521C141.486 194.521 140.636 193.624 140.636 192.302C140.636 190.98 141.486 190.098 142.698 190.098C143.391 190.098 143.942 190.381 144.304 190.917L145.61 189.689C145.106 188.996 144.162 188.319 142.604 188.319C140.258 188.319 138.574 189.972 138.574 192.302C138.574 194.647 140.258 196.3 142.604 196.3Z" fill="white"/>
<path d="M150.758 196.3C153.276 196.3 154.787 194.474 154.787 192.302C154.787 190.145 153.276 188.319 150.758 188.319C148.255 188.319 146.744 190.145 146.744 192.302C146.744 194.474 148.255 196.3 150.758 196.3ZM150.758 194.521C149.514 194.521 148.822 193.498 148.822 192.302C148.822 191.121 149.514 190.098 150.758 190.098C152.001 190.098 152.71 191.121 152.71 192.302C152.71 193.498 152.001 194.521 150.758 194.521Z" fill="white"/>
<path d="M168.029 196.111V190.618C168.029 189.059 167.194 188.319 165.794 188.319C164.629 188.319 163.621 189.012 163.181 189.705C162.897 188.839 162.189 188.319 161.071 188.319C159.907 188.319 158.899 189.044 158.584 189.5V188.508H156.585V196.111H158.584V190.995C158.883 190.57 159.466 190.098 160.158 190.098C160.977 190.098 161.292 190.602 161.292 191.31V196.111H163.307V190.98C163.59 190.57 164.172 190.098 164.881 190.098C165.699 190.098 166.014 190.602 166.014 191.31V196.111H168.029Z" fill="white"/>
<path opacity="0.2" fill-rule="evenodd" clip-rule="evenodd" d="M55.5556 128.519H46.2963V127.593H55.5556V128.519Z" fill="#0F4CC0"/>
<path opacity="0.2" fill-rule="evenodd" clip-rule="evenodd" d="M155.556 128.519H146.296V127.593H155.556V128.519Z" fill="#0F4CC0"/>
<path d="M71.4035 132.222L74.7349 123.576H72.6349L70.2498 130.226L67.8516 123.576H65.7516L69.096 132.222H71.4035Z" fill="#0F4CC0"/>
<path d="M78.2815 132.222V123.576H76.4408V132.222H78.2815Z" fill="#0F4CC0"/>
<path d="M87.0239 132.222V130.602H82.7461V128.644H86.9332V127.024H82.7461V125.196H87.0239V123.576H80.9054V132.222H87.0239Z" fill="#0F4CC0"/>
<path d="M97.9388 132.222L100.402 123.576H98.3277L96.824 129.824L95.1907 123.576H93.7518L92.1055 129.824L90.5888 123.576H88.5277L91.0037 132.222H92.9611L94.4648 126.285L95.9814 132.222H97.9388Z" fill="#0F4CC0"/>
<path d="M110.498 132.378C113.116 132.378 115.022 130.511 115.022 127.906C115.022 125.3 113.116 123.433 110.498 123.433C107.892 123.433 105.987 125.3 105.987 127.906C105.987 130.511 107.892 132.378 110.498 132.378ZM110.498 130.744C108.903 130.744 107.879 129.513 107.879 127.906C107.879 126.285 108.903 125.067 110.498 125.067C112.092 125.067 113.129 126.285 113.129 127.906C113.129 129.513 112.092 130.744 110.498 130.744Z" fill="#0F4CC0"/>
<path d="M121.123 132.378C123.754 132.378 125.025 130.913 125.025 128.761V123.576H123.145V128.709C123.145 129.915 122.458 130.744 121.123 130.744C119.788 130.744 119.088 129.915 119.088 128.709V123.576H117.221V128.774C117.221 130.9 118.491 132.378 121.123 132.378Z" fill="#0F4CC0"/>
<path d="M134.635 132.222L132.691 128.93C133.624 128.709 134.584 127.893 134.584 126.363C134.584 124.756 133.482 123.576 131.68 123.576H127.635V132.222H129.476V129.15H130.824L132.522 132.222H134.635ZM131.408 127.53H129.476V125.196H131.408C132.146 125.196 132.704 125.637 132.704 126.363C132.704 127.089 132.146 127.53 131.408 127.53Z" fill="#0F4CC0"/>
<path d="M100.836 81.0694C100.732 80.9581 100.732 81.0694 100.836 81.0694L100.316 80.7355L100.212 80.6242L87.94 71.2738C87.94 71.2738 87.836 71.2738 87.836 71.1625L87.628 70.9398L87.524 70.8285H87.316L83.7799 68.157L90.7481 69.2701C91.0601 69.2701 91.1641 69.3815 91.4761 69.4928C91.5801 69.4928 91.7881 69.6041 91.7881 69.6041C92.1001 69.7154 92.2041 69.8267 92.4122 69.938C92.6202 70.0493 92.7242 70.1606 92.9322 70.272C93.0362 70.3833 93.2442 70.4946 93.2442 70.6059C93.3482 70.7172 93.4522 70.7172 93.5562 70.8285C93.7642 70.9398 93.8682 71.0512 93.8682 71.1625C94.1802 71.4964 94.3882 71.8304 94.7002 72.053L100.212 80.4015L100.316 80.5128L100.836 81.0694Z" fill="#0F4CC0"/>
<path d="M100.836 93.9819L100.316 93.0914L100.212 92.9801L83.8831 68.157L87.4193 70.8285L88.0433 71.2738L100.316 80.6242H100.42L100.836 80.9581C100.836 80.9581 100.94 80.9581 100.94 81.0694L101.46 80.6242L117.996 68.157L101.356 93.0914L101.252 93.2027L100.836 93.9819Z" fill="#0F4CC0"/>
<path d="M100.835 76.8394L100.315 75.9489L100.211 75.8376L96.1546 69.8266L100.211 70.7171H100.315L100.835 70.8284L101.355 70.7171L105.307 69.7153L101.355 75.9489V76.0602L100.835 76.8394Z" fill="#0F4CC0"/>
<path d="M118.103 68.0453L112.903 68.8245L110.926 69.1584C109.366 69.3811 107.91 70.2716 106.974 71.7187L101.462 80.1785L101.358 80.2898L100.838 81.069L101.462 80.4012L101.566 80.2898L100.838 81.069L114.879 70.3829L118.103 68.0453Z" fill="#0F4CC0"/>
<path d="M103.435 50.458C103.435 55.3558 95.5304 57.916 95.5304 63.1478C95.4263 64.3722 95.7384 65.5967 96.2584 66.7098C96.2584 66.7098 93.2423 63.593 93.2423 60.2536C93.2423 56.9142 96.1544 51.9051 96.1544 51.9051C96.1544 54.1314 96.9864 54.7993 97.8184 54.9106H97.9224C98.8585 54.9106 99.3785 54.1314 99.3785 53.0182C99.3785 51.9051 98.2344 50.792 98.2344 48.5657C98.2344 46.4507 100.731 43 100.731 43C102.499 45.2263 103.435 47.7865 103.435 50.458Z" fill="#0F4CC0"/>
<path d="M101.251 68.2681C98.7547 68.2681 96.8827 66.1531 96.8827 63.5929V63.4816C96.8827 57.8046 104.267 57.248 104.267 49.5673C104.475 49.9013 106.451 52.7954 106.451 55.9122C106.451 59.8082 103.019 60.81 103.019 62.7024C103.019 63.4816 103.331 64.0381 104.371 64.0381C104.475 64.0381 104.579 64.0381 104.683 63.9268C106.659 63.0363 108.011 61.0327 108.115 58.6951C108.115 58.8064 109.155 68.2681 101.251 68.2681Z" fill="#0F4CC0"/>
<path d="M104.474 64.0382C104.578 64.0382 104.682 64.0382 104.786 63.9268C103.746 64.2608 99.8983 65.2626 99.8983 62.3684C99.8983 58.8064 105.618 58.0272 105.618 55.0217C105.618 53.1294 105.202 51.237 104.266 49.5673C104.474 49.9013 106.45 52.7954 106.45 55.9122C106.45 59.8082 103.018 60.8101 103.018 62.7024C103.122 63.4816 103.538 64.0382 104.474 64.0382Z" fill="#0F4CC0"/>
<path d="M101.356 52.4617C101.356 55.2445 98.028 55.0219 97.8199 54.9106H98.132C99.068 54.9106 99.588 54.1314 99.588 53.0183C99.588 51.9051 98.444 50.792 98.444 48.5657C98.444 46.4507 100.94 43 100.94 43C100.108 44.4471 99.692 46.0055 99.588 47.5639C99.588 50.1241 101.356 50.3467 101.356 52.4617Z" fill="#0F4CC0"/>
<path d="M99.274 101.106L96.986 99.436H99.7941L100.73 96.4306L101.562 99.436H104.37L102.082 101.106L102.914 104L100.626 102.219L98.234 104L99.274 101.106Z" fill="#0F4CC0"/>
<path d="M111.236 101.106L108.948 99.436H111.756L112.692 96.4306L113.524 99.436H116.332L114.044 101.106L114.876 104L112.588 102.219L110.196 104L111.236 101.106Z" fill="#0F4CC0"/>
<path d="M87.4182 101.106L85.1302 99.436H87.9382L88.8743 96.4306L89.7063 99.436H92.5144L90.2263 101.106L91.0583 104L88.7703 102.219L86.4822 104L87.4182 101.106Z" fill="#0F4CC0"/>
<defs>
<filter id="filter0_d_409_60835" x="1.11108" y="0" width="197.778" height="270" filterUnits="userSpaceOnUse" color-interpolation-filters="sRGB">
<feFlood flood-opacity="0" result="BackgroundImageFix"/>
<feColorMatrix in="SourceAlpha" type="matrix" values="0 0 0 0 0 0 0 0 0 0 0 0 0 0 0 0 0 0 127 0" result="hardAlpha"/>
<feOffset/>
<feGaussianBlur stdDeviation="5"/>
<feComposite in2="hardAlpha" operator="out"/>
<feColorMatrix type="matrix" values="0 0 0 0 0 0 0 0 0 0 0 0 0 0 0 0 0 0 0.1 0"/>
<feBlend mode="normal" in2="BackgroundImageFix" result="effect1_dropShadow_409_60835"/>
<feBlend mode="normal" in="SourceGraphic" in2="effect1_dropShadow_409_60835" result="shape"/>
</filter>
</defs>
</svg>
