<?xml version="1.0" encoding="utf-8"?>
<!-- Generator: Adobe Illustrator 25.0.0, SVG Export Plug-In . SVG Version: 6.00 Build 0)  -->
<svg version="1.1" id="Layer_1" xmlns:xodm="http://www.corel.com/coreldraw/odm/2003"
	 xmlns="http://www.w3.org/2000/svg" xmlns:xlink="http://www.w3.org/1999/xlink" x="0px" y="0px" viewBox="0 0 151.4 33.7"
	 style="enable-background:new 0 0 151.4 33.7;" xml:space="preserve">
<style type="text/css">
	.st0{fill:#FFFFFF;}
	.st1{fill-rule:evenodd;clip-rule:evenodd;fill:#FFFFFF;}
</style>
<g id="Layer_x0020_1">
	<g id="_2793746653504">
		<path class="st0" d="M74,28l1.8,4.1h0.9l1.8-4.1V32h0.8v-5.4h-1l-2,4.4l-2-4.4h-1V32H74C74,32,74,28,74,28z M82,28
			c-1.3,0-2.2,0.8-2.2,2c0,1.2,0.8,2,2.2,2c0.5,0,1.1-0.2,1.5-0.4l0.1,0.3h0.7v-3.9l-0.7,0l-0.1,0.3C83.1,28.3,82.5,28,82,28L82,28z
			 M82.1,31.3c-1.2,0-1.5-0.6-1.5-1.3s0.3-1.3,1.5-1.3c0.4,0,0.9,0.1,1.3,0.3V31C83.1,31.1,82.6,31.3,82.1,31.3z M85.1,32h0.8v-2.9
			c0.4-0.2,1-0.3,1.4-0.3c1.1,0,1.3,0.4,1.3,1.1l0,2.2h0.8v-2.2c0-1.2-0.8-1.8-2-1.8c-0.5,0-1.2,0.2-1.6,0.4l-0.1-0.3l-0.7,0
			L85.1,32L85.1,32z M90.2,32H91v-3.9l-0.8,0V32z M91.1,27c0-0.3-0.2-0.5-0.5-0.5c-0.3,0-0.5,0.2-0.5,0.5c0,0.3,0.2,0.5,0.5,0.5
			C90.9,27.5,91.1,27.3,91.1,27z M93.9,26.6c-0.8,0-1.7,0.2-1.7,1.4v0.1h-0.7l-0.1,0.7h0.7V32H93v-3.2h1.7l0.1-0.7H93V28
			c0-0.5,0.2-0.7,0.9-0.7c0.4,0,0.8,0.1,0.8,0.1l0.1-0.7C94.7,26.7,94.3,26.6,93.9,26.6L93.9,26.6z M98.9,29.9
			c0-1.2-0.9-1.8-1.9-1.8c-1.3,0-2.2,0.8-2.2,2c0,1.2,0.9,2,2.3,2c0.6,0,1.3-0.1,1.6-0.3l-0.2-0.7c-0.3,0.1-0.9,0.2-1.4,0.2
			c-0.9,0-1.3-0.4-1.4-0.9l3.3,0C98.9,30.5,98.9,30.2,98.9,29.9L98.9,29.9z M97,28.8c0.6,0,1.1,0.3,1.1,0.9l-2.5,0
			C95.7,29.2,96.1,28.8,97,28.8L97,28.8z M101.2,28c-1,0-1.9,0.3-1.9,1.2c0,0.7,0.8,1.1,1.7,1.2c0.7,0.1,1.2,0.2,1.2,0.5
			c0,0.3-0.1,0.5-1.2,0.5c-0.5,0-1.1-0.1-1.4-0.2l-0.2,0.7c0.4,0.1,1,0.3,1.6,0.3c1.2,0,2-0.3,2-1.3c0-0.9-1-1.1-1.8-1.2
			c-0.5-0.1-1.1-0.2-1.1-0.5c0-0.3,0.5-0.4,1.1-0.4c0.4,0,0.9,0.1,1.2,0.2l0.2-0.7C102.2,28.1,101.7,28,101.2,28L101.2,28z
			 M104.6,27.2l-0.5,0.1l-0.3,0.9h-0.6l-0.1,0.7h0.6v1.8c0,1.2,0.9,1.4,1.7,1.4c0.5,0,0.9-0.1,0.9-0.1l-0.1-0.7c0,0-0.4,0.1-0.8,0.1
			c-0.7,0-1-0.1-1-0.7v-1.8h1.7l0.1-0.7h-1.7C104.6,28.1,104.6,27.2,104.6,27.2z M107,32h0.8v-3.9l-0.8,0V32z M107.9,27
			c0-0.3-0.2-0.5-0.5-0.5c-0.3,0-0.5,0.2-0.5,0.5c0,0.3,0.2,0.5,0.5,0.5C107.7,27.5,107.9,27.3,107.9,27z M108.7,32h0.8v-2.9
			c0.4-0.2,1-0.3,1.4-0.3c1.1,0,1.3,0.4,1.3,1.1l0,2.2h0.8v-2.2c0-1.2-0.8-1.8-2-1.8c-0.5,0-1.2,0.2-1.6,0.4l-0.1-0.3l-0.7,0
			L108.7,32L108.7,32z M115.8,28c-1.3,0-2.2,0.8-2.2,2c0,1.2,0.8,2,2.2,2c0.5,0,1-0.1,1.4-0.3v0.1c0,0.7-0.3,1.1-1.4,1.1
			c-0.5,0-1.2-0.1-1.6-0.2l-0.2,0.7c0.5,0.2,1.2,0.2,1.8,0.2c1.3,0,2.2-0.5,2.2-1.8v-3.7l-0.7,0l-0.1,0.3
			C116.9,28.3,116.3,28,115.8,28L115.8,28z M115.9,31.3c-1.2,0-1.5-0.6-1.5-1.3c0-0.7,0.3-1.3,1.5-1.3c0.4,0,0.9,0.1,1.3,0.3V31
			C116.9,31.1,116.4,31.3,115.9,31.3z M121.4,28l1.8,4.1h0.9l1.8-4.1V32h0.8v-5.4h-1l-2,4.4l-2-4.4h-1V32h0.8
			C121.4,32,121.4,28,121.4,28z M127.5,32h0.8v-3.9l-0.8,0V32z M128.4,27c0-0.3-0.2-0.5-0.5-0.5c-0.3,0-0.5,0.2-0.5,0.5
			c0,0.3,0.2,0.5,0.5,0.5C128.2,27.5,128.4,27.3,128.4,27z M131.5,28c-0.5,0-1.2,0.2-1.5,0.4l-0.1-0.3l-0.7,0.1V32h0.8v-2.9
			c0.4-0.2,1-0.3,1.4-0.3c0.5,0,0.8,0.1,0.8,0.1l0.2-0.7C132.3,28.1,132,28,131.5,28L131.5,28z M134.5,28c-1.3,0-2.2,0.8-2.2,2
			c0,1.2,0.8,2,2.2,2c0.5,0,1.1-0.2,1.5-0.4l0.1,0.3h0.7v-3.9l-0.7,0l-0.1,0.3C135.7,28.3,135.1,28,134.5,28L134.5,28z M134.6,31.3
			c-1.2,0-1.5-0.6-1.5-1.3c0-0.7,0.3-1.3,1.5-1.3c0.4,0,0.9,0.1,1.3,0.3V31C135.7,31.1,135.1,31.3,134.6,31.3z M139.7,31.3
			c-1.1,0-1.5-0.7-1.5-1.3c0-0.6,0.4-1.3,1.5-1.3c0.4,0,0.9,0.1,1.2,0.3l0.3-0.7c-0.3-0.2-0.9-0.3-1.5-0.3c-1.4,0-2.3,0.8-2.3,2
			c0,1.2,0.9,2,2.3,2c0.6,0,1.1-0.2,1.5-0.4l-0.3-0.7C140.6,31.2,140.2,31.3,139.7,31.3L139.7,31.3z M141.8,32h0.8v-5.4l-0.8,0
			C141.8,26.7,141.8,32,141.8,32z M147.3,29.9c0-1.2-0.9-1.8-1.9-1.8c-1.3,0-2.2,0.8-2.2,2c0,1.2,0.9,2,2.3,2c0.6,0,1.3-0.1,1.6-0.3
			l-0.2-0.7c-0.3,0.1-0.9,0.2-1.4,0.2c-0.9,0-1.3-0.4-1.4-0.9l3.3,0C147.3,30.5,147.3,30.2,147.3,29.9L147.3,29.9z M145.4,28.8
			c0.6,0,1.1,0.3,1.1,0.9l-2.5,0C144.1,29.2,144.5,28.8,145.4,28.8L145.4,28.8z M149.6,28c-1,0-1.9,0.3-1.9,1.2
			c0,0.7,0.8,1.1,1.7,1.2c0.7,0.1,1.2,0.2,1.2,0.5c0,0.3-0.1,0.5-1.2,0.5c-0.5,0-1.1-0.1-1.4-0.2l-0.2,0.7c0.4,0.1,1,0.3,1.6,0.3
			c1.2,0,2-0.3,2-1.3c0-0.9-1-1.1-1.8-1.2c-0.5-0.1-1.1-0.2-1.1-0.5c0-0.3,0.5-0.4,1.1-0.4c0.4,0,0.9,0.1,1.2,0.2l0.2-0.7
			C150.6,28.1,150.1,28,149.6,28L149.6,28z"/>
		<path class="st0" d="M31.6,29.1C31.6,29.1,31.6,29.1,31.6,29.1C31.6,29.1,31.6,29.1,31.6,29.1C31.6,29.1,31.6,29.1,31.6,29.1z
			 M35.1,26c-0.1,0.3-0.2,0.5-0.2,0.6c0,0.1,0,0.2-0.1,0.3c0,0.1-0.1,0.3-0.1,0.5c0.1-0.1,0.1-0.2,0.1-0.2c0.2-0.4,0.2-0.7,0.3-1
			C35.1,26.1,35.1,26.1,35.1,26L35.1,26z M31.6,29.1C31.6,29.1,31.6,29.1,31.6,29.1C31.6,29.1,31.6,29.1,31.6,29.1
			C31.6,29.1,31.6,29.1,31.6,29.1L31.6,29.1z M32,28.8c0,0,0.1-0.1,0.1-0.1c0,0-0.1,0-0.1-0.1C32,28.6,32,28.7,32,28.8
			c-0.1,0-0.2,0-0.2,0c-0.1,0.1-0.2,0.1-0.2,0.2c0,0,0,0.1,0,0.1c0.1-0.1,0.2-0.1,0.3-0.2C31.9,28.9,32,28.8,32,28.8L32,28.8z
			 M34.7,26.9c0.1-0.2,0.1-0.3,0.2-0.5c-0.1,0.5-0.4,0.9-0.6,1.3L34.1,28c-0.1,0.1-0.1,0.2-0.2,0.3l-0.1,0.1c0,0-0.1,0.1-0.1,0.1
			l-0.2,0.3c0,0,0,0,0,0c0.1-0.1,0.1-0.1,0.2-0.2l0,0c0.4-0.5,0.7-0.9,0.9-1.3c0-0.1,0.1-0.2,0.1-0.3C34.6,27,34.7,27,34.7,26.9
			L34.7,26.9z M32.8,28.1c0,0,0.1-0.1,0.1-0.1c0,0,0.1-0.1,0.1-0.1c0,0,0.1-0.1,0.1-0.1c0-0.1,0.1-0.1,0.1-0.2
			c0.1-0.1,0.1-0.1,0.1-0.1c0,0-0.1,0.1-0.2,0.2c-0.1,0.1-0.1,0.2-0.2,0.2C32.9,27.9,32.7,28.2,32.8,28.1L32.8,28.1z M34.3,26.8
			c0,0.1-0.1,0.1-0.1,0.2c0,0.1-0.1,0.1-0.1,0.2c0,0.1-0.1,0.2-0.2,0.4c0.3-0.5,0.4-0.9,0.6-1.2c0,0.1-0.1,0.1-0.1,0.2
			C34.4,26.7,34.4,26.7,34.3,26.8L34.3,26.8z M33.2,29.3c0,0-0.1,0.1-0.3,0.2c-0.1,0.1-0.1,0.1-0.2,0.2c-0.1,0-0.1,0.1-0.2,0.1
			c-0.1,0-0.1,0.1-0.1,0.1c0.1,0,0.1-0.1,0.2-0.1c0,0,0.1,0,0.1-0.1c0,0,0.1,0,0.1-0.1C33,29.5,33.1,29.4,33.2,29.3
			C33.2,29.3,33.2,29.3,33.2,29.3L33.2,29.3z M34.4,25.1C34.4,25.1,34.4,25.1,34.4,25.1L34.4,25.1C34.4,25.1,34.4,25.1,34.4,25.1
			C34.4,25.1,34.4,25.1,34.4,25.1C34.4,25.1,34.4,25.1,34.4,25.1L34.4,25.1z M34.4,24.4c0,0.1,0,0.2,0,0.3c0,0,0,0.1,0,0.1
			c0,0,0,0.1,0,0.1c0,0.1,0,0.2,0,0.1c0-0.1,0.1-0.3,0.1-0.4C34.5,24.5,34.5,24.4,34.4,24.4z M33.9,28.8c-0.1,0.1-0.1,0.1-0.2,0.2
			c0,0-0.1,0.1-0.1,0.1c0,0-0.1,0.1-0.1,0.1c0.1-0.1,0.2-0.2,0.3-0.3c0.1-0.1,0.1-0.1,0.2-0.2c0.1-0.1,0.1-0.2,0.2-0.3
			C34.1,28.5,34,28.6,33.9,28.8L33.9,28.8z M34.2,28.2c0-0.1,0.1-0.2,0.1-0.2c0-0.1,0,0-0.1,0.1c-0.1,0.1-0.1,0.2-0.2,0.3
			c-0.1,0.1-0.1,0.2-0.2,0.2C33.9,28.5,34,28.4,34.2,28.2L34.2,28.2z M33.8,28.6C33.8,28.6,33.8,28.6,33.8,28.6
			C33.8,28.6,33.8,28.6,33.8,28.6C33.8,28.6,33.8,28.6,33.8,28.6C33.8,28.6,33.8,28.6,33.8,28.6L33.8,28.6L33.8,28.6z M32.4,26.8
			c-0.1,0.1-0.2,0.2-0.2,0.4C32.3,26.9,32.3,26.9,32.4,26.8z M30.2,31.8c0.1,0,0.2-0.1,0.3-0.1c0.1,0,0.2-0.1,0.4-0.2
			c-0.1,0-0.2,0-0.2,0c-0.1,0.1-0.2,0.1-0.4,0.1C30.2,31.7,30.2,31.8,30.2,31.8z M30.6,31.6C30.6,31.6,30.6,31.6,30.6,31.6
			C30.6,31.6,30.6,31.6,30.6,31.6C30.6,31.6,30.6,31.6,30.6,31.6C30.6,31.6,30.6,31.6,30.6,31.6C30.6,31.6,30.6,31.6,30.6,31.6z
			 M32.9,27.8c-0.1,0.1-0.2,0.2-0.2,0.3C32.7,28.1,32.8,28,32.9,27.8L32.9,27.8L32.9,27.8z M32.9,27.8L32.9,27.8L32.9,27.8
			C32.9,27.8,32.9,27.8,32.9,27.8C32.9,27.8,32.9,27.8,32.9,27.8C32.9,27.8,32.9,27.8,32.9,27.8L32.9,27.8z M33.9,26.1
			c0,0.1-0.1,0.2-0.1,0.2c0,0.1-0.1,0.2-0.1,0.3c0.1-0.1,0.1-0.2,0.1-0.3C33.8,26.2,33.9,26.2,33.9,26.1L33.9,26.1z M32.6,30.4
			c-0.1,0.1-0.2,0.1-0.3,0.2l0,0c0,0,0,0,0.2-0.1C32.5,30.5,32.6,30.5,32.6,30.4c0.1,0,0.1-0.1,0.2-0.1
			C32.7,30.3,32.7,30.3,32.6,30.4z M28.2,16.7C28.2,16.7,28.1,16.7,28.2,16.7c-0.1,0-0.2,0-0.2,0c0,0-0.1,0-0.1,0c0,0,0.1,0,0.1,0
			C28,16.7,28.1,16.7,28.2,16.7L28.2,16.7z M33.8,28.6c0-0.1-0.2,0.1-0.2,0.1l0,0C33.6,28.7,33.7,28.8,33.8,28.6L33.8,28.6z
			 M33.6,29.5c-0.1,0.1-0.2,0.2-0.2,0.2C33.4,29.7,33.5,29.6,33.6,29.5C33.5,29.5,33.5,29.5,33.6,29.5
			C33.5,29.5,33.5,29.5,33.6,29.5L33.6,29.5z M33.1,30.1c-0.1,0.1-0.2,0.2-0.3,0.2C32.9,30.2,33,30.2,33.1,30.1
			c0.1-0.1,0.2-0.2,0.3-0.3c-0.1,0.1,0,0.1,0.1-0.1c0.1-0.1,0.1-0.2,0.2-0.2c-0.1,0-0.1,0.1-0.2,0.1c0,0.1-0.1,0.1-0.1,0.2
			L33.1,30.1L33.1,30.1z M32.8,30.3C32.7,30.3,32.7,30.3,32.8,30.3C32.7,30.3,32.7,30.3,32.8,30.3C32.7,30.3,32.8,30.3,32.8,30.3
			C32.8,30.3,32.8,30.3,32.8,30.3L32.8,30.3L32.8,30.3z M35,27.9C35,28,35,28,35,27.9C34.9,28,35,28,35,27.9c0,0,0.1-0.1,0.1-0.2
			C35.1,27.8,35.1,27.8,35,27.9C35,27.9,35,27.9,35,27.9L35,27.9z M23.7,19.8c0.1,0,0.1,0,0.1-0.1c0,0,0.1,0,0.1-0.1
			c0,0-0.1,0-0.1,0C23.8,19.8,23.8,19.8,23.7,19.8L23.7,19.8z M32.5,28.1C32.6,28.1,32.6,28.1,32.5,28.1c0.1-0.1,0.2-0.1,0.2-0.2
			c0,0,0,0,0,0C32.6,28,32.6,28.1,32.5,28.1L32.5,28.1z M33.4,27c0,0,0.1-0.1,0.1-0.1c0,0,0-0.1,0-0.1c0,0,0,0.1-0.1,0.1
			C33.4,26.9,33.4,27,33.4,27L33.4,27z M34.6,24.6C34.6,24.5,34.6,24.5,34.6,24.6C34.6,24.5,34.6,24.5,34.6,24.6
			C34.6,24.5,34.6,24.5,34.6,24.6C34.6,24.5,34.6,24.5,34.6,24.6L34.6,24.6z M34.6,24.8l0-0.3C34.6,24.6,34.6,24.7,34.6,24.8
			L34.6,24.8L34.6,24.8z M34.9,25.9c0,0,0-0.1,0-0.1c0,0,0,0,0-0.1C35,25.8,35,25.8,34.9,25.9C35,25.9,34.9,25.9,34.9,25.9z
			 M35.1,25.5c0,0,0-0.1,0-0.1l0-0.1C35.1,25.3,35.1,25.4,35.1,25.5C35.1,25.4,35.1,25.5,35.1,25.5z M29,31.7
			c-0.1-0.1-0.1-0.1-0.4,0C28.7,31.7,28.8,31.7,29,31.7z M32.2,30.4c0.1-0.1,0.1-0.1,0.3-0.2C32.3,30.3,32.2,30.3,32.2,30.4z
			 M32.2,30.4C32.1,30.4,32.1,30.4,32.2,30.4L32.2,30.4L32.2,30.4C32.1,30.4,32.1,30.4,32.2,30.4C32.1,30.4,32.1,30.4,32.2,30.4z
			 M30.3,31.4C30.4,31.4,30.4,31.4,30.3,31.4C30.4,31.3,30.4,31.3,30.3,31.4C30.4,31.4,30.4,31.4,30.3,31.4
			C30.3,31.4,30.3,31.4,30.3,31.4z M32,30.8c-0.1,0-0.2,0.1-0.2,0.1C31.8,31,31.9,30.9,32,30.8c0.1,0,0.1-0.1,0.2-0.1c0,0,0,0,0,0
			C32.2,30.7,32.1,30.7,32,30.8L32,30.8z M29.8,31.8C29.8,31.8,29.8,31.8,29.8,31.8L29.8,31.8C29.8,31.8,29.8,31.8,29.8,31.8
			C29.8,31.8,29.8,31.8,29.8,31.8C29.8,31.8,29.8,31.8,29.8,31.8L29.8,31.8z M29.3,32c0.2,0,0.3-0.1,0.5-0.1
			C29.6,31.9,29.5,31.9,29.3,32L29.3,32z M14.9,28.4C14.9,28.4,14.9,28.4,14.9,28.4c0.1-0.1,0.1-0.1,0.1-0.1
			C15,28.3,15,28.3,14.9,28.4C14.9,28.3,14.9,28.4,14.9,28.4z M33.5,26.2C33.5,26.2,33.5,26.3,33.5,26.2
			C33.5,26.3,33.5,26.2,33.5,26.2C33.5,26.2,33.5,26.2,33.5,26.2C33.5,26.2,33.5,26.2,33.5,26.2L33.5,26.2z M33.7,25.7L33.7,25.7
			L33.7,25.7L33.7,25.7L33.7,25.7z M33.3,27L33.3,27L33.3,27C33.4,26.9,33.4,26.9,33.3,27C33.3,26.9,33.3,27,33.3,27z M33,27.6
			C33,27.6,33,27.7,33,27.6c-0.1,0.1-0.1,0.1-0.1,0.2l0,0C32.9,27.7,33,27.7,33,27.6L33,27.6z M34.3,25.9l0,0.1L34.3,25.9
			C34.3,26,34.3,25.9,34.3,25.9z M33.8,27.7c0,0,0.1-0.1,0.1-0.1c0,0,0,0,0-0.1c0,0,0,0,0,0C33.9,27.6,33.9,27.6,33.8,27.7
			L33.8,27.7z M34.8,27.3L34.8,27.3L34.8,27.3L34.8,27.3L34.8,27.3z M34.6,27.9C34.6,27.9,34.6,27.9,34.6,27.9
			C34.6,27.8,34.6,27.8,34.6,27.9L34.6,27.9L34.6,27.9L34.6,27.9z M30.8,31.3C30.8,31.3,30.8,31.3,30.8,31.3c-0.1,0-0.1,0-0.2,0.1
			c0,0-0.1,0-0.1,0.1c0,0,0.1,0,0.1,0c0,0,0,0-0.1,0c-0.1,0-0.2,0.1-0.2,0.1c-0.2,0-0.4,0-0.5,0c-0.1,0-0.2,0.1-0.4,0.1
			c-0.1,0-0.2,0.1-0.3,0.1c-0.1,0-0.3,0-0.4,0.1c-0.1,0-0.2,0-0.4,0c-0.2,0-0.5,0-0.8,0c0.1,0,0.2,0,0.3,0c0.1,0,0.2,0,0.2,0
			c0.1,0,0.2,0,0.4,0c0,0,0,0,0,0c0,0,0,0,0,0c0,0,0,0,0,0c0.1,0,0.1,0,0.2-0.1c0.3,0,0.6-0.1,0.9-0.2c0.1,0,0.2-0.1,0.3-0.1
			c0.1,0,0.2-0.1,0.2-0.1c0.1-0.1,0.3-0.1,0.4-0.2c0.1-0.1,0.3-0.1,0.4-0.2c0.2-0.1,0.3-0.2,0.5-0.3l0.2-0.1l0.2-0.1
			c0,0-0.1,0-0.2,0.1c-0.1,0.1-0.3,0.2-0.3,0.1c0.1,0,0.1-0.1,0.2-0.1c0.1,0,0.1-0.1,0.2-0.1c0.4-0.2,0.7-0.5,0.8-0.5
			c0.1,0,0.3-0.2,0.4-0.3c0.2-0.3,0.5-0.5,0.7-0.9c0,0,0.1-0.1,0.1-0.1c0,0,0.1-0.1,0.1-0.1c0.1-0.1,0.1-0.2,0.2-0.3
			c-0.1,0.1-0.2,0.2-0.3,0.3c-0.1,0.1-0.2,0.2-0.2,0.2c-0.1,0.1-0.1,0.1-0.1,0.1c0,0-0.1,0-0.2,0.2c-0.1,0.1-0.2,0.2-0.2,0.3
			c0,0,0,0,0,0c0,0,0,0,0,0l0,0l0,0c0.1-0.1,0.3-0.2,0.3-0.2c-0.1,0.1-0.2,0.2-0.2,0.3c-0.2,0.2-0.4,0.3-0.6,0.5
			c-0.1,0.1-0.2,0.2-0.3,0.2s-0.2,0.2-0.4,0.2c-0.1,0.1-0.2,0.1-0.3,0.2c-0.1,0-0.2,0.1-0.3,0.1c0,0-0.1,0-0.1,0.1
			c0,0-0.1,0-0.1,0.1c-0.1,0-0.2,0.1-0.3,0.1c0.1-0.1,0.3-0.1,0.4-0.2c0.1-0.1,0.2-0.1,0.3-0.2c0.2-0.1,0.4-0.3,0.6-0.4
			c-0.1,0-0.2,0.1-0.3,0.2c-0.1,0.1-0.3,0.2-0.3,0.2c0,0,0.1-0.1,0.1-0.2c0.1-0.1,0.2-0.1,0.3-0.2c0.1-0.1,0.2-0.1,0.3-0.2
			c0.1-0.1,0.2-0.1,0.3-0.2c0.1-0.1,0.2-0.1,0.2-0.2c0,0-0.1,0.1-0.1,0.1c0,0-0.1,0.1-0.1,0.1c-0.1,0.1-0.1,0.1-0.2,0.1
			c-0.1,0.1-0.3,0.2-0.4,0.3c-0.1,0.1-0.2,0.1-0.2,0.1c-0.1,0-0.1,0-0.2,0c0.1-0.1,0.2-0.1,0.3-0.2c0.1-0.1,0.2-0.1,0.2-0.2
			c0.4-0.3,0.8-0.6,1.2-1l0.1-0.1c0,0,0.1-0.1,0.1-0.1c0.1-0.1,0.2-0.2,0.2-0.3c0.1-0.1,0.2-0.2,0.2-0.3c0.1-0.1,0.1-0.2,0.2-0.3
			c0.4-0.6,0.6-1.3,0.8-2c0-0.1,0-0.2,0.1-0.3c0-0.1,0-0.2,0-0.4c0,0.1-0.1,0.1-0.1,0.2c0,0.1,0,0.2-0.1,0.4
			c-0.1,0.6-0.4,1.3-0.7,1.9c0,0.1-0.1,0.1-0.1,0.2c-0.1,0.1-0.2,0.1-0.2,0.2c-0.1,0.1-0.1,0.2-0.2,0.3c0,0-0.1,0.1-0.1,0.1
			c0,0-0.1,0.1-0.1,0.1c0,0,0-0.1,0-0.1c-0.1,0.2-0.2,0.3-0.3,0.4c-0.1,0.1-0.1,0.2-0.2,0.2c-0.1,0.1-0.1,0.1-0.2,0.2
			c0.1-0.1,0.1-0.2,0.2-0.3c-0.1,0.1-0.1,0.1-0.2,0.2c-0.1,0.1-0.1,0.1-0.2,0.2c-0.1,0.1-0.2,0.2-0.3,0.3c-0.2,0.1-0.3,0.2-0.4,0.3
			c-0.1,0.1-0.2,0.1-0.4,0.3c-0.1,0-0.2,0.1-0.3,0.1c0.5-0.3,1-0.6,1.4-1.1c0,0,0,0,0.1-0.1c0.1-0.1,0.2-0.2,0.3-0.3
			c0.1-0.1,0.2-0.2,0.3-0.4c0.1-0.1,0.2-0.3,0.3-0.4c0-0.1,0.1-0.1,0.1-0.2c0-0.1,0.1-0.1,0.1-0.2c0.1-0.1,0.1-0.2,0.2-0.3
			c0-0.1,0.1-0.2,0.1-0.3c0-0.1,0-0.1,0.1-0.2l0.1-0.2c0-0.1,0.1-0.2,0.1-0.3c0.1-0.4,0.2-0.9,0.2-1.3c0-0.1,0-0.3,0-0.4
			c0-0.1,0-0.2,0-0.3c0,0.2-0.1,0.3-0.2,0.5c0,0.1,0,0.2,0,0.3c0,0.1,0,0.2-0.1,0.4c0,0.1-0.1,0.3-0.1,0.5c0,0.1,0,0.3-0.1,0.4
			c0,0.1-0.1,0.2-0.1,0.3c0,0.1,0,0.1-0.1,0.2c-0.1,0.1-0.1,0.2-0.2,0.4c-0.1,0.1-0.1,0.2-0.2,0.3c0,0,0-0.1,0-0.1
			c-0.1,0.1-0.2,0.3-0.3,0.5c-0.1,0.1-0.1,0.2-0.2,0.3c0,0-0.1,0.1-0.1,0.1c0,0-0.1,0.1-0.1,0.1c0.1-0.2,0.2-0.3,0.3-0.5
			c0.4-0.6,0.7-1.3,0.9-2c0-0.2,0.1-0.4,0.1-0.5c0,0,0,0.1,0,0.1c0,0,0,0.1,0,0.2c0,0.1,0,0.2-0.1,0.3c0,0.1-0.1,0.2-0.1,0.3
			c0,0.1-0.1,0.2-0.1,0.2c0,0.2-0.2,0.4-0.2,0.5c0,0.1-0.1,0.2-0.1,0.2c0,0.1-0.1,0.2-0.1,0.2c-0.1,0.2,0-0.1-0.1,0
			c-0.1,0.1-0.2,0.2-0.2,0.4c-0.1,0.1-0.2,0.2-0.3,0.4c-0.1,0.1-0.2,0.2-0.3,0.3c-0.1,0.1-0.1,0.1-0.2,0.2c0,0-0.1,0.1-0.1,0.1
			l-0.1,0.1c-0.1,0.1-0.1,0.1-0.2,0.2c0,0-0.1,0.1-0.1,0.1C32,29,32,29,31.9,29.1c0,0-0.1,0.1-0.1,0.1c0,0,0,0-0.1,0c0,0,0,0-0.1,0
			c-0.1,0.1-0.2,0.1-0.3,0.2c0.2-0.1,0.4-0.3,0.3-0.3c-0.1,0.1-0.2,0.2-0.3,0.2c0,0-0.1,0-0.1,0c-0.1,0-0.1,0-0.1,0
			c0,0-0.1,0-0.2,0.1c0.1,0,0.1-0.1,0.2-0.1c0.1,0,0.1-0.1,0.1-0.1c0.1,0,0.1-0.1,0.2-0.1c0.1,0,0.1-0.1,0.2-0.1
			c-0.1,0-0.1,0.1-0.2,0.1c-0.1,0-0.1,0.1-0.1,0.1c-0.1,0.1-0.2,0.1-0.3,0.2c-0.1,0-0.2,0.1-0.3,0.1s-0.2,0.1-0.2,0.1
			c0,0-0.1,0-0.1,0c0.2-0.1,0.3-0.2,0.4-0.2c0.1,0,0.2-0.1,0.2-0.1c0.1-0.1,0.3-0.2,0.4-0.3c0.1-0.1,0.2-0.2,0.3-0.3
			c0.1-0.1,0.2-0.2,0.3-0.3c0.3-0.3,0.6-0.7,0.9-1.1c0,0,0.1-0.1,0.1-0.2c-0.1,0-0.2,0.3-0.3,0.3c0.3-0.5,0.6-1,0.7-1.5
			c0-0.2,0.1-0.3,0.1-0.4c0-0.2,0-0.2,0-0.3c0,0,0-0.3,0-0.3c0,0.1,0,0.2-0.1,0.2c0,0.1-0.1,0.1-0.1,0.2c0,0.1-0.1,0.3-0.1,0.4
			l0.1-0.2l0,0c0,0.1,0,0.2-0.1,0.2c0,0,0,0,0,0.1c-0.1,0.2-0.1,0.3-0.1,0.4c0,0.1-0.1,0.1-0.1,0.2c0,0.1-0.1,0-0.1,0
			c0.1-0.1,0.1-0.3,0.2-0.4c0-0.1,0-0.1,0.1-0.2c0-0.1,0-0.1,0.1-0.2c0-0.1,0-0.1,0-0.2c0,0,0-0.1,0-0.1c0,0,0-0.1,0-0.1
			c0-0.1,0-0.2,0-0.2c0-0.1,0-0.2,0-0.2c0,0.1,0,0.2,0,0.3s0,0.2,0,0.3c0,0.1,0,0.2-0.1,0.2c0,0.1,0,0.1-0.1,0.2
			c0-0.1,0-0.2,0.1-0.3s0-0.2,0.1-0.4c-0.1,0.5-0.2,0.9-0.3,1.2c0,0,0,0.1,0,0.1l0,0.1c0,0.1-0.1,0.1-0.1,0.2c0,0.1-0.1,0.1-0.1,0.2
			l-0.1,0.1l-0.1,0.1c-0.2,0.2-0.2,0.3-0.2,0.1c0.1-0.1,0.1-0.2,0.2-0.3c0-0.1,0.1-0.3,0.1-0.3h0c-0.2,0.4-0.5,0.8-0.8,1.1
			c0,0,0,0,0,0c-0.1,0-0.1,0.1-0.2,0.2c0,0-0.1,0.1-0.1,0.1c0,0-0.1,0-0.1,0.1c0,0,0.1-0.1,0.1-0.1c0,0,0-0.1,0.1-0.1
			c0.1-0.1,0.1-0.1,0.2-0.2c0,0,0.1-0.1,0.1-0.1c0,0,0,0,0,0c0,0-0.1,0.1-0.2,0.2c-0.1,0.2-0.3,0.3-0.5,0.4
			c-0.2,0.1-0.3,0.3-0.5,0.4c-0.1,0-0.2,0.1-0.2,0.2l-0.2,0.1c0,0,0,0-0.1,0c0,0,0.1,0,0.1,0c-0.1,0.1-0.3,0.2-0.4,0.2
			c-0.1,0.1-0.3,0.1-0.4,0.1c0,0,0,0,0,0c0,0,0,0,0,0c0.1-0.1,0.3-0.1,0.5-0.2c-0.1,0-0.2,0-0.2,0c0,0-0.1,0-0.1,0c0,0,0,0-0.1,0
			c0,0-0.1,0-0.1,0c-0.2,0.1-0.5,0.1-0.8,0.2c-0.3,0-0.7,0-1,0c-0.6,0-1.1-0.2-1.7-0.4c-0.3-0.1-0.5-0.2-0.8-0.3
			c0,0-0.1-0.1-0.2-0.1c-0.1-0.1-0.2-0.1-0.3-0.2c-0.4-0.2-0.7-0.4-0.9-0.6c0,0-0.1-0.1-0.1-0.1c-0.2-0.2-0.4-0.3-0.6-0.5
			c-0.2-0.2-0.4-0.4-0.7-0.6c0.2,0.2,0.3,0.3,0.4,0.4c0.3,0.2,0.5,0.5,0.7,0.7c0.2,0.2,0.4,0.4,0.7,0.5c0.1,0.1,0.2,0.2,0.1,0.1
			c-0.2-0.1-0.5-0.3-0.7-0.5c-0.1,0-0.1-0.1-0.2-0.1l-0.1-0.1l-0.1-0.1c-0.1-0.1-0.2-0.2-0.3-0.3c-0.2-0.2-0.3-0.3-0.5-0.5
			c-0.2-0.2-0.4-0.3-0.5-0.4c0,0-0.1-0.1-0.1-0.1c-0.3-0.3-0.6-0.6-0.9-0.9c-0.4-0.4-0.8-0.9-1.3-1.3c-0.1-0.1-0.2-0.2-0.3-0.3
			c0.1-0.1,0.2-0.2,0.3-0.3c0.4-0.4,0.7-0.8,1.1-1.2c0.2-0.2,0.3-0.3,0.4-0.4c0.1-0.2,0.3-0.3,0.4-0.5c0.2-0.2,0.3-0.3,0.5-0.5
			c0.2-0.2,0.4-0.3,0.5-0.5c0,0,0.1-0.1,0.2-0.1c0.1-0.1,0.3-0.2,0.3-0.2c0.1,0,0.1,0,0.2,0c0.1,0,0.1-0.1,0.2-0.1
			c0.2-0.1,0.1,0,0.3,0c0.1-0.1,0.2-0.1,0.3-0.2c0.1,0,0.2-0.1,0.2-0.1c0.1,0,0.3-0.1,0.4-0.1c0.1,0,0.2-0.1,0.3-0.1l0.1,0
			c0,0,0.1,0,0.1,0c0,0,0.1,0,0.2,0c0.1,0,0.2,0,0.2,0c0,0,0.1,0,0.2,0c0.1,0,0.2-0.1,0.2-0.1c0.1,0,0.1-0.1,0.1-0.1
			c0-0.1,0.2-0.1,0.4-0.2c0.2,0,0.4-0.1,0.6-0.1c0.1,0,0.2,0,0.3,0c0.1,0,0.2,0,0.3,0l0.1,0h0.1c0,0,0.1,0,0.1,0
			c0.2,0,0.4,0,0.6,0.1c0.1-0.1,0-0.1,0.2-0.1c0.3,0.1,0.6,0.2,1,0.3c0,0,0.1,0,0.1,0c0.4,0.1,0.8,0.3,1.1,0.6c0.1,0,0.1,0,0.2,0.1
			c0.1,0,0.1,0.1,0.2,0.1c0.2,0.1,0.4,0.3,0.6,0.6c0.2,0.2,0.4,0.5,0.5,0.7c0.2,0.2,0.3,0.5,0.5,0.8c0.1,0.3,0.2,0.6,0.2,0.9
			c0,0.2,0.1,0.4,0.1,0.7c0.1,0,0.1,0.1,0.2,0.1c0,0.2,0,0.2,0,0.5c0,0,0.1,0.1,0.1,0.1c0,0,0.1-0.1,0.1-0.1c0,0,0,0,0,0
			c0.1,0.2,0.1,0.1,0.1,0.1c0.1,0,0.1-0.2,0.1-0.4c0-0.1,0-0.3,0-0.4c0-0.2,0-0.3-0.1-0.5c-0.2-0.9-0.5-1.9-1.1-2.7c0,0,0,0,0-0.1
			c-0.3-0.4-0.7-0.8-1.1-1.2c-0.4-0.3-0.9-0.6-1.4-0.9c-0.6-0.3-1.2-0.4-1.9-0.5c-0.2,0-0.3,0-0.5,0c-0.1,0-0.2,0-0.2,0l-0.2,0
			l-0.2,0l-0.2,0l-0.2,0l-0.2,0c-0.1,0-0.2,0-0.3,0c-0.1,0-0.1,0-0.2,0c-0.1,0-0.2,0-0.2-0.1c-0.1,0,0-0.1,0-0.1
			c0.2,0,0.4-0.1,0.6-0.1c0.1,0,0.3-0.1,0.3-0.1c0.1,0,0.1,0,0.1-0.1c-0.2,0-0.4,0-0.5,0c0.1-0.1,0.3-0.1,0.4-0.2c0.4,0,0.8,0,0.9,0
			c0,0,0.1,0,0.1,0c0.1,0,0.1,0,0.2,0c0,0,0.1,0,0.1,0c0,0,0,0-0.1-0.1c0,0-0.1,0-0.2,0c0,0-0.1,0-0.1,0c0,0-0.1,0-0.1,0
			c-0.1,0-0.3,0-0.4,0c-0.2,0-0.4,0-0.6,0c-0.2,0-0.3,0-0.5,0.1c-0.2,0-0.3,0.1-0.4,0.1c-0.5,0.1-1,0.3-1.5,0.5
			c-0.6,0.3-1.3,0.6-1.8,1c-0.6,0.4-1.1,0.8-1.6,1.2c-0.2,0.2-0.4,0.4-0.6,0.6l-0.3,0.3l-0.3,0.3l-1.2,1.2c-0.1,0.1-0.3,0.3-0.4,0.4
			c-0.1-0.1-0.2-0.2-0.3-0.3c-0.1-0.2-0.3-0.3-0.4-0.5c0-0.1,0-0.1-0.2-0.4c-0.2-0.2-0.3-0.4-0.5-0.6c-0.2-0.2-0.4-0.4-0.6-0.6
			c-0.2-0.2-0.3-0.3-0.5-0.5c-0.2-0.2-0.3-0.3-0.5-0.4c-0.8-0.6-1.6-1.3-2.5-1.8c-0.1,0-0.1-0.1-0.2-0.1c-0.1,0-0.1-0.1-0.2-0.1
			c-0.2-0.1-0.3-0.2-0.5-0.2c-0.1,0-0.2-0.1-0.3-0.1c-0.1,0-0.2-0.1-0.3-0.1c-0.1,0-0.3-0.1-0.4-0.1c-0.3,0-0.5-0.1-0.7-0.2
			C9.7,16.1,9.1,16,8.6,16c-0.2,0-0.3,0-0.5,0c-0.1,0-0.4,0-0.6,0c-0.3,0-0.7,0-1,0.1c-0.3,0.1-0.5,0.1-0.8,0.2c-0.1,0-0.1,0-0.2,0
			c-0.1,0-0.1,0-0.2,0.1c-0.1,0-0.3,0.1-0.4,0.2c-0.1,0-0.1,0.1-0.2,0.1c-0.4,0.1-0.8,0.3-1.1,0.6c-0.1,0-0.1,0.1-0.2,0.1
			s-0.1,0.1-0.2,0.1c-0.1,0.1-0.3,0.2-0.4,0.3c-0.3,0.2-0.6,0.5-0.7,0.7c-0.2,0.3-0.5,0.6-0.7,1c-0.3,0.4-0.5,0.8-0.7,1.2
			c0,0.1-0.1,0.2-0.1,0.3c0,0.1-0.1,0.2-0.1,0.2c0,0.1-0.1,0.2-0.1,0.3c0,0.1-0.1,0.2-0.1,0.4c-0.1,0.2-0.1,0.4-0.2,0.6
			c0,0.2-0.1,0.4-0.1,0.6c0,0.1,0,0.3,0,0.4c0,0.1,0,0.3,0,0.5c0,0.2,0,0.4,0,0.7c0,0.1,0,0.1,0,0.2l0,0.1c0,0.1,0,0.2,0,0.3
			c0,0.2,0.1,0.4,0.1,0.6c0,0.1,0,0.2,0.1,0.3c0,0.1,0.1,0.2,0.1,0.3c0.2,0.6,0.4,1.1,0.7,1.7c0.6,1,1.4,1.9,2.3,2.5
			c0.2,0.1,0.5,0.3,0.7,0.4c0.1,0.1,0.2,0.1,0.4,0.2c0.1,0.1,0.3,0.1,0.4,0.2c0.4,0.2,0.8,0.4,1.2,0.5c0.3,0.1,0.7,0.2,1.1,0.3
			c0.6,0.1,1.3,0.2,2.1,0.1c0.1,0,0.3,0,0.5-0.1c0.2,0,0.4-0.1,0.5-0.1c0.7-0.2,1.4-0.5,2-0.8c0.3-0.1,0.4-0.3,0.5-0.3
			c-0.4,0.2-0.8,0.4-1.2,0.5c-0.1,0-0.2,0.1-0.2,0.1c0,0,0-0.1,0-0.1c0.1-0.1,0.3-0.1,0.4-0.2c0.1-0.1,0.2-0.1,0.3-0.2
			c0.1-0.1,0.2-0.1,0.2-0.2c0.1,0,0.1-0.1,0-0.1c-0.3,0.1-0.2-0.1-0.1-0.2c0-0.1,0-0.1,0-0.1c-0.1,0-0.2,0.1-0.3,0.1
			c-0.2,0-0.3,0.1-0.5,0.1c-0.1,0.1-0.3,0.1-0.5,0.2c-0.1,0-0.2,0-0.2,0c0,0,0,0,0,0c0,0,0.1,0,0.1-0.1c0.3-0.1,0.6-0.2,0.6-0.3
			c0,0,0,0,0.1,0c0,0,0.1,0,0.1-0.1c0.1,0,0.1-0.1,0.2-0.1c-0.2,0.1-0.3,0.1-0.5,0.2c0.3-0.1,0.4-0.3,0.7-0.4
			c0.3-0.2,0.6-0.4,0.9-0.6c0.2-0.1,0.4-0.2,0.5-0.3c0.2-0.2,0.3-0.2,0.3-0.3c0.1-0.1,0.1-0.1,0.2-0.1c0.4-0.2,0.7-0.5,1.1-0.8
			c0.2-0.2,0.5-0.5,0.7-0.7c0.3-0.2,0.6-0.5,0.9-0.8c0.1-0.1,0.2-0.2,0.3-0.3c0,0,0,0,0,0c0.1-0.1,0.2-0.2,0.3-0.2
			c0.2-0.2,0.4-0.4,0.6-0.5c0,0,0.1,0.1,0.1,0.1c-0.3,0.2-0.5,0.5-0.8,0.7c-0.1,0.2-0.2,0.3-0.3,0.4c0.2,0,0.6-0.6,0.8-0.6
			c0.1-0.2,0.3-0.3,0.4-0.4c0,0,0,0,0,0s0,0,0.1,0.1c0.2,0.2,0.4,0.4,0.5,0.6c0.1,0.1,0.2,0.3,0.4,0.4c0.2,0.1,0.2,0.3,0.4,0.4
			c0.1,0.1,0.3,0.3,0.5,0.4c0.3,0.3,0.5,0.5,0.8,0.8c0.2,0.2,0.5,0.5,0.7,0.7c0.1,0.1,0.3,0.2,0.4,0.4c0.1,0.1,0.1,0.1,0.2,0.2
			c0.1,0.1,0.1,0.1,0.2,0.2c0.1,0.1,0.2,0.2,0.3,0.2c0.5,0.3,0.8,0.5,1,0.7c0.4,0.2,0.4,0.2,0.6,0.3c0.1,0,0.1,0.1,0.2,0.1
			c0.9,0.4,1.8,0.7,2.8,0.8c0.5,0.1,1,0.1,1.5,0c0,0,0,0,0,0c0.3,0,0.5,0,0.8-0.1c0.2,0,0.4-0.1,0.6-0.1c0.2-0.1,0.4-0.1,0.6-0.2
			c0,0,0,0,0,0c0,0,0,0,0-0.1c0.1,0,0.2-0.1,0.2-0.1c0,0,0,0,0,0.1c0.1,0,0.2-0.1,0.3-0.1c0.1-0.1,0.3-0.2,0.4-0.3
			C31.1,31.3,31.2,31.2,30.8,31.3L30.8,31.3L30.8,31.3z M33.7,28.3L33.7,28.3C33.7,28.3,33.6,28.3,33.7,28.3
			c-0.1,0.1-0.1,0.2-0.2,0.3C33.5,28.5,33.5,28.5,33.7,28.3C33.6,28.4,33.6,28.3,33.7,28.3z M33.6,28.3L33.6,28.3
			c0.1,0-0.1,0.2-0.1,0.3c0,0,0,0,0,0c-0.1,0.1-0.1,0.1-0.2,0.1s-0.1,0.1-0.2,0.1C33.3,28.6,33.3,28.6,33.6,28.3z M32.2,29.5
			L32.2,29.5c0.1-0.1,0.2-0.1,0.2-0.2c0.2-0.1,0.3-0.2,0.5-0.3c-0.1,0.2-0.3,0.3-0.4,0.4c-0.1,0.1-0.3,0.2-0.4,0.3
			c0,0-0.1,0.1-0.1,0C32,29.7,32.2,29.6,32.2,29.5z M33.6,27.5L33.6,27.5C33.6,27.5,33.7,27.5,33.6,27.5
			C33.7,27.5,33.6,27.5,33.6,27.5c0,0.1-0.1,0.1-0.1,0.1C33.6,27.6,33.6,27.5,33.6,27.5z M32.6,28.6L32.6,28.6c0,0,0.1-0.1,0.1-0.1
			c0.1-0.1,0.2-0.1,0.3-0.2c0,0.1,0,0.1,0,0.1c0,0-0.1,0.1-0.1,0.1C32.8,28.6,32.7,28.6,32.6,28.6C32.6,28.7,32.6,28.6,32.6,28.6
			L32.6,28.6z M31.4,29.5L31.4,29.5L31.4,29.5L31.4,29.5L31.4,29.5L31.4,29.5z M31.1,30.3L31.1,30.3c0.3-0.2,0.2-0.1,0.2,0
			C31.2,30.3,31.1,30.3,31.1,30.3c-0.1,0.1-0.2,0.1-0.3,0.2C30.9,30.4,31,30.3,31.1,30.3L31.1,30.3z M31.1,30.4L31.1,30.4L31.1,30.4
			c-0.1,0.1-0.3,0.2-0.4,0.2l0,0C30.8,30.6,31,30.5,31.1,30.4z M30.6,30.8L30.6,30.8L30.6,30.8L30.6,30.8L30.6,30.8L30.6,30.8z
			 M33.2,25.9L33.2,25.9L33.2,25.9L33.2,25.9C33.2,25.9,33.2,25.9,33.2,25.9C33.2,25.9,33.2,25.9,33.2,25.9L33.2,25.9z M32.2,28
			L32.2,28C32.2,28,32.2,28,32.2,28L32.2,28L32.2,28C32.2,27.9,32.2,28,32.2,28L32.2,28z M32.5,27.8L32.5,27.8L32.5,27.8L32.5,27.8
			L32.5,27.8L32.5,27.8z M31.9,27.7L31.9,27.7c0.1-0.1,0.1-0.1,0.1-0.2c0,0,0.1-0.1,0.1-0.1c0.1-0.1,0.1-0.1,0.2-0.2
			c0,0.1-0.1,0.1-0.1,0.2c0,0.1-0.1,0.1-0.1,0.2C32,27.7,32,27.8,31.9,27.7c-0.1,0.1-0.1,0.2-0.1,0.2c0,0-0.1,0-0.1,0
			C31.8,27.9,31.9,27.8,31.9,27.7L31.9,27.7z M31.6,28.6L31.6,28.6C31.6,28.6,31.6,28.6,31.6,28.6C31.6,28.6,31.6,28.6,31.6,28.6
			C31.6,28.6,31.5,28.7,31.6,28.6C31.5,28.7,31.5,28.7,31.6,28.6z M31.3,28.9L31.3,28.9C31.3,28.9,31.4,28.9,31.3,28.9
			c0.1,0,0.1-0.1,0.1-0.1C31.4,28.9,31.4,28.9,31.3,28.9C31.3,28.9,31.3,28.9,31.3,28.9C31.3,28.9,31.3,28.9,31.3,28.9L31.3,28.9z
			 M31.1,28.2L31.1,28.2c0,0,0.1-0.1,0.2-0.1C31.2,28.2,31.1,28.2,31.1,28.2C31.1,28.3,31,28.3,31.1,28.2C31,28.3,31,28.2,31.1,28.2
			L31.1,28.2z M30.1,29L30.1,29C30.1,29,30.1,29,30.1,29L30.1,29L30.1,29C30.1,29,30.1,29,30.1,29C30,29,30,29,30.1,29
			C30,29,30.1,29,30.1,29L30.1,29z M29.6,30.8L29.6,30.8c0.3-0.1,0.4-0.1,0.5-0.1c0.1,0,0.1,0,0.2,0C30.1,30.7,29.8,30.8,29.6,30.8
			C29.6,30.8,29.6,30.8,29.6,30.8L29.6,30.8z M28.5,30.9L28.5,30.9C28.5,30.9,28.4,30.9,28.5,30.9L28.5,30.9L28.5,30.9
			C28.5,30.9,28.5,30.9,28.5,30.9L28.5,30.9z M29.1,30.8L29.1,30.8L29.1,30.8L29.1,30.8C29.1,30.9,29.1,30.9,29.1,30.8
			C29.1,30.9,29.1,30.9,29.1,30.8z M28.4,29.2L28.4,29.2c0.1,0,0.3,0,0.4,0c-0.4,0.1-0.7,0.1-1,0C28.1,29.2,28.3,29.2,28.4,29.2z
			 M27.8,31L27.8,31c0.1,0,0.1,0,0.2,0c0,0-0.1,0-0.1,0C27.8,31,27.7,31,27.8,31C27.7,31,27.7,31,27.8,31L27.8,31z M26,17.1L26,17.1
			C26,17.2,26,17.2,26,17.1c0,0.1,0.1,0.1,0.2,0.1c0,0,0,0-0.1,0.1c0,0-0.1,0-0.1,0c0,0-0.1,0-0.2,0C25.7,17.3,25.7,17.2,26,17.1z
			 M0.9,23.9L0.9,23.9C0.9,23.9,0.9,23.9,0.9,23.9C0.9,23.9,0.9,23.9,0.9,23.9c0-0.1,0-0.1,0-0.1C0.9,23.8,0.9,23.9,0.9,23.9z M1,23
			L1,23c0.1-0.6,0.2-1.2,0.5-1.8c-0.1,0.2-0.1,0.4-0.2,0.5c0,0.1,0,0.2,0,0.2s0,0.1,0,0.2C1.1,22.4,1.1,22.8,1,23L1,23z M1.3,26.3
			L1.3,26.3c0-0.1,0-0.1-0.1-0.2c0-0.1,0-0.1,0-0.2c0-0.1-0.1-0.2-0.1-0.3c0,0.1,0.1,0.3,0.1,0.4C1.3,26.1,1.3,26.2,1.3,26.3
			c0.1,0,0.1,0,0.1,0.1c0,0,0,0.1,0,0.2c0,0.1,0.1,0.2,0.1,0.5C1.5,26.8,1.4,26.6,1.3,26.3L1.3,26.3z M1.9,23.6L1.9,23.6
			c0,0,0,0.1,0,0.1C1.9,23.7,1.9,23.6,1.9,23.6C1.9,23.6,1.9,23.5,1.9,23.6L1.9,23.6z M1.9,25.4L1.9,25.4
			C1.9,25.3,1.9,25.3,1.9,25.4c0-0.1,0-0.1,0-0.1L1.9,25.4C1.9,25.3,1.9,25.4,1.9,25.4z M2.1,25.6L2.1,25.6c0-0.1,0-0.2-0.1-0.3l0,0
			C2.1,25.4,2.1,25.5,2.1,25.6L2.1,25.6L2.1,25.6z M17.1,26.4L17.1,26.4L17.1,26.4l0.2-0.2l0,0L17.1,26.4L17.1,26.4z M19.5,23.7
			L19.5,23.7L19.5,23.7C19.6,23.7,19.6,23.7,19.5,23.7C19.6,23.7,19.5,23.7,19.5,23.7L19.5,23.7L19.5,23.7z M19.2,24.1L19.2,24.1
			C19.2,24.1,19.2,24.1,19.2,24.1C19.2,24.1,19.2,24.1,19.2,24.1C19.2,24.1,19.2,24.1,19.2,24.1L19.2,24.1z M18.7,22.8L18.7,22.8
			L18.7,22.8L18.7,22.8C18.8,22.9,18.8,22.9,18.7,22.8L18.7,22.8L18.7,22.8z M18.8,22.5L18.8,22.5c0.2-0.3,0.5-0.5,0.7-0.8
			c0.3-0.3,0.5-0.5,0.8-0.7c0.3-0.2,0.3,0,0.3,0c0,0-0.1,0.2-0.2,0.3c-0.1,0.1-0.1,0.1-0.2,0.2c-0.5,0.5-1,0.9-1.4,1.4
			c-0.1-0.1-0.1-0.1-0.2-0.2C18.7,22.6,18.8,22.5,18.8,22.5L18.8,22.5z M17.6,22.5L17.6,22.5L17.6,22.5L17.6,22.5
			C17.6,22.5,17.6,22.5,17.6,22.5z M16,23.9L16,23.9c-0.1,0.1-0.3,0.3-0.4,0.4C15.7,24.1,15.8,24,16,23.9C16,23.9,16,23.9,16,23.9z
			 M12.5,18.1L12.5,18.1L12.5,18.1L12.5,18.1L12.5,18.1L12.5,18.1z M11.2,18.5L11.2,18.5C11.2,18.5,11.3,18.5,11.2,18.5
			C11.2,18.5,11.2,18.5,11.2,18.5c-0.1,0-0.1,0-0.1,0C11.2,18.5,11.2,18.5,11.2,18.5L11.2,18.5z M8.4,18L8.4,18
			C8.4,18,8.4,18.1,8.4,18c0,0-0.1,0-0.2,0l0,0C8.2,18,8.3,18,8.4,18z M4.9,18.4L4.9,18.4C4.9,18.4,5,18.4,4.9,18.4L4.9,18.4
			L4.9,18.4C4.9,18.4,4.9,18.4,4.9,18.4L4.9,18.4z M4.9,18.5L4.9,18.5c0.1,0,0.1-0.1,0.2-0.1c0.1,0,0.1,0,0.2,0c0,0,0,0-0.1,0.1
			C5,18.5,5,18.5,4.9,18.5c-0.1,0.1-0.1,0.1-0.2,0.2C4.7,18.6,4.8,18.6,4.9,18.5L4.9,18.5z M5,18.7L5,18.7c-0.1,0-0.2,0.1-0.2,0.1
			l0,0C4.9,18.8,4.9,18.7,5,18.7L5,18.7z M3.5,19.6L3.5,19.6L3.5,19.6L3.5,19.6L3.5,19.6L3.5,19.6z M3.5,20.2L3.5,20.2L3.5,20.2
			L3.5,20.2L3.5,20.2C3.5,20.2,3.5,20.2,3.5,20.2z M3,18.8L3,18.8C3,18.8,3,18.8,3,18.8C2.9,18.8,2.9,18.9,3,18.8L3,18.8z M2.9,20.3
			L2.9,20.3C2.9,20.3,2.9,20.3,2.9,20.3C2.9,20.3,2.9,20.3,2.9,20.3c0,0.1,0,0.1-0.1,0.1L2.9,20.3L2.9,20.3z M2.8,21L2.8,21
			c0,0.1-0.1,0.2-0.1,0.3c0,0.1-0.1,0.1-0.1,0.2c0-0.1,0.1-0.1,0.1-0.2C2.7,21.2,2.8,21.1,2.8,21L2.8,21z M2.2,22.9L2.2,22.9
			c0,0.1,0,0.1,0,0.2c0,0,0,0,0,0c0-0.1,0-0.1,0-0.2C2.2,22.9,2.2,22.9,2.2,22.9L2.2,22.9z M2.2,24.5L2.2,24.5c0,0,0-0.1,0-0.1
			c0,0,0,0,0-0.1c0,0,0,0.1,0,0.1C2.3,24.4,2.3,24.4,2.2,24.5C2.3,24.5,2.2,24.5,2.2,24.5L2.2,24.5z M2.4,22.3L2.4,22.3
			C2.4,22.3,2.4,22.3,2.4,22.3C2.4,22.2,2.4,22.2,2.4,22.3L2.4,22.3L2.4,22.3L2.4,22.3z M2.4,21.3L2.4,21.3
			C2.4,21.2,2.4,21.2,2.4,21.3c0.1-0.1,0.1-0.2,0.1-0.2c0-0.1,0.1-0.1,0.1-0.2c-0.1,0.2-0.2,0.4-0.3,0.5C2.4,21.4,2.4,21.3,2.4,21.3
			z M2.4,23.3L2.4,23.3C2.4,23.3,2.4,23.3,2.4,23.3C2.4,23.3,2.4,23.3,2.4,23.3l0-0.1C2.5,23.2,2.5,23.2,2.4,23.3L2.4,23.3z
			 M3.1,20.9L3.1,20.9C3,21,3,21.1,3,21.1c0,0,0,0,0,0c0,0,0,0,0,0c-0.2,0.3-0.4,0.7-0.5,1.1C2.6,21.8,2.8,21.3,3.1,20.9L3.1,20.9z
			 M4.1,27.7L4.1,27.7c0,0-0.1-0.1-0.2-0.2C4,27.5,4,27.6,4.1,27.7C4.1,27.6,4.1,27.7,4.1,27.7C4.1,27.7,4.1,27.7,4.1,27.7z
			 M5.6,28.7L5.6,28.7C5.5,28.7,5.5,28.7,5.6,28.7C5.5,28.7,5.6,28.7,5.6,28.7C5.6,28.7,5.6,28.8,5.6,28.7
			C5.6,28.8,5.6,28.7,5.6,28.7z M13.7,26.7L13.7,26.7C13.7,26.7,13.6,26.7,13.7,26.7C13.6,26.7,13.7,26.6,13.7,26.7
			C13.7,26.6,13.7,26.6,13.7,26.7C13.7,26.6,13.7,26.6,13.7,26.7L13.7,26.7z M12.9,26.6L12.9,26.6c-0.2,0.1-0.3,0.3-0.5,0.4
			c-0.1,0.1-0.1,0.1-0.2,0.2l-0.1,0.1l-0.1,0l0,0c-0.1,0.1-0.2,0.2-0.4,0.3c-0.5,0.3-1,0.6-1.6,0.8c-0.1,0-0.3,0.1-0.4,0.1
			c-0.3,0.1-0.6,0.1-0.9,0.1c-0.2,0-0.3,0-0.5,0c-0.3,0-0.6,0.1-0.9,0c-0.1,0-0.2,0-0.2,0c0,0-0.1,0-0.1,0c0,0-0.1,0-0.1,0
			c-0.1,0-0.2,0-0.2-0.1c-0.1,0-0.2,0-0.4,0c-0.1,0-0.1-0.1-0.2-0.1c-0.1,0-0.1-0.1-0.2-0.1c-0.1-0.1-0.3-0.2-0.4-0.3
			c-0.1-0.1-0.2-0.2-0.3-0.3c-0.1-0.1-0.2-0.2-0.3-0.3c-0.3-0.2-0.5-0.5-0.7-0.7c-0.3-0.4-0.5-0.7-0.7-1.2c0,0,0-0.1,0-0.1l0-0.1
			l0-0.1c0-0.1-0.1-0.1-0.1-0.2c0-0.1-0.1-0.3-0.1-0.4c0-0.1-0.1-0.3-0.1-0.4c0,0,0-0.1,0-0.1l0-0.1c0,0,0-0.1,0-0.1
			c0,0,0-0.1,0-0.1c0-0.1,0-0.1,0-0.2c0-0.1,0-0.2,0-0.3c0-0.1,0-0.2,0-0.3c0-0.1,0-0.2,0.1-0.3c0-0.1,0.1-0.2,0.1-0.3
			c0-0.1,0.1-0.2,0.1-0.2c0.1-0.3,0.1-0.5,0.2-0.7c0.1-0.2,0.3-0.5,0.4-0.7c0.4-0.5,0.9-0.9,1.4-1.2c0.5-0.3,1.1-0.5,1.7-0.6
			c0.2,0,0.4,0,0.6,0l0,0l0,0l0.1,0l0.2,0c0.1,0,0.3,0,0.4,0c0.5,0.1,1,0.2,1.5,0.3c0.5,0.2,1,0.4,1.5,0.7c0.5,0.3,1,0.6,1.4,1
			c0.2,0.2,0.4,0.4,0.6,0.5c0.1,0.1,0.2,0.2,0.3,0.3l0.2,0.1l0.2,0.2c0.2,0.2,0.4,0.4,0.6,0.6c0.3,0.3,0.7,0.7,1,1
			c-0.1,0.1-0.2,0.2-0.3,0.2c-0.2,0.2-0.4,0.4-0.6,0.5c-0.4,0.4-0.8,0.8-1.2,1.1C13.5,26.1,13.2,26.3,12.9,26.6L12.9,26.6z
			 M15.5,24.4L15.5,24.4c-0.1,0.1-0.2,0.2-0.2,0.2c-0.1,0-0.1,0.1-0.1,0c0,0,0.1-0.1,0.1-0.2C15.4,24.4,15.4,24.4,15.5,24.4
			C15.4,24.5,15.4,24.4,15.5,24.4L15.5,24.4z M15,25.1L15,25.1C15,25.1,15,25.1,15,25.1C15,25.1,15,25.2,15,25.1
			c-0.1,0.1-0.2,0.2-0.3,0.3C14.8,25.3,14.9,25.2,15,25.1z M14.8,25.1L14.8,25.1C14.8,25,14.9,25,14.8,25.1
			C14.9,25,14.9,25,14.8,25.1C14.8,25.1,14.8,25.1,14.8,25.1C14.8,25.1,14.8,25.1,14.8,25.1L14.8,25.1z M14.1,26.2L14.1,26.2
			L14.1,26.2C14.1,26.3,14.1,26.2,14.1,26.2C14.2,26.2,14.2,26.2,14.1,26.2L14.1,26.2L14.1,26.2z M14.9,25.6L14.9,25.6
			c-0.3,0.3-0.4,0.3-0.5,0.3c0,0,0-0.1,0.1-0.1c0.2-0.1,0.3-0.2,0.5-0.3c0.1-0.1,0.2-0.1,0.2-0.2c-0.1,0-0.1,0-0.2,0.1
			c0.2-0.2,0.4-0.4,0.6-0.6c-0.1,0-0.2,0.1-0.2,0.1c0,0,0.1-0.1,0.2-0.2c0.2-0.2,0.4-0.4,0.6-0.5c0,0,0-0.1,0-0.1
			c0.1,0.1,0.1,0.1,0.2,0.2l-0.4,0.4C15.6,24.9,15.2,25.3,14.9,25.6L14.9,25.6z M17,25.9L17,25.9c-0.2,0.2-0.3,0.3-0.7,0.6
			c0.3-0.2,0.4-0.3,0.6-0.5c-0.1,0.1-0.1,0.2-0.1,0.2c-0.1,0.1-0.3,0.2-0.5,0.3c0-0.1-0.2,0,0-0.2c0.3-0.2,0.5-0.5,0.9-0.8
			C17.1,25.8,17.1,25.8,17,25.9L17,25.9z M19.6,24.6L19.6,24.6c-0.1-0.1-0.3-0.2-0.4-0.4c0,0,0,0,0,0c0,0,0,0,0.1,0c0,0,0,0,0,0
			c0,0,0.1,0.1,0.1,0.1C19.6,24.6,19.7,24.7,19.6,24.6L19.6,24.6z M20,24.2L20,24.2C20,24.2,20,24.1,20,24.2
			C20,24.1,20,24.2,20,24.2L20,24.2C20.1,24.2,20,24.2,20,24.2z M20.5,26.9L20.5,26.9L20.5,26.9C20.5,26.9,20.5,26.9,20.5,26.9
			C20.5,26.9,20.5,26.9,20.5,26.9L20.5,26.9L20.5,26.9z M20.7,24.9L20.7,24.9C20.7,24.9,20.7,24.9,20.7,24.9L20.7,24.9L20.7,24.9
			C20.8,25,20.8,25,20.7,24.9L20.7,24.9z M21,27.7L21,27.7L21,27.7C21,27.7,21,27.7,21,27.7C21,27.7,21,27.8,21,27.7
			C21.1,27.8,21,27.7,21,27.7z M21.1,27.5L21.1,27.5C21,27.4,21,27.4,21.1,27.5C21,27.4,21,27.4,21.1,27.5
			C21,27.4,21.1,27.4,21.1,27.5C21.1,27.5,21.1,27.5,21.1,27.5z M21.4,25.7L21.4,25.7L21.4,25.7C21.4,25.6,21.4,25.6,21.4,25.7
			C21.5,25.7,21.5,25.7,21.4,25.7C21.5,25.8,21.4,25.7,21.4,25.7z M22.5,28.9L22.5,28.9C22.5,28.8,22.5,28.8,22.5,28.9
			C22.5,28.8,22.5,28.8,22.5,28.9C22.5,28.8,22.6,28.9,22.5,28.9C22.6,28.9,22.6,28.9,22.5,28.9z M22.9,27.1L22.9,27.1
			C22.8,27,22.8,27,22.9,27.1C22.8,27,22.9,27,22.9,27.1C22.9,27.1,22.9,27.1,22.9,27.1C22.9,27.1,22.9,27.1,22.9,27.1z M23.7,27.7
			L23.7,27.7c0,0-0.1-0.1-0.1-0.1c0,0-0.1-0.1-0.1-0.1l0,0c0,0,0.1,0.1,0.1,0.1S23.6,27.7,23.7,27.7L23.7,27.7L23.7,27.7z
			 M25.2,28.6L25.2,28.6c-0.1,0-0.1-0.1-0.2-0.1C25.1,28.5,25.2,28.5,25.2,28.6c0.1,0,0.1,0,0.2,0.1C25.4,28.6,25.3,28.6,25.2,28.6z
			 M25.6,28.7L25.6,28.7c0.1,0,0.2,0,0.3,0.1c0.1,0,0.1,0,0.2,0.1c0,0,0,0,0,0c-0.1,0-0.1,0-0.2-0.1C25.8,28.8,25.7,28.8,25.6,28.7z
			 M26.2,29L26.2,29c0,0-0.1,0-0.1,0C26.1,28.9,26.2,28.9,26.2,29C26.2,29,26.3,29,26.2,29C26.2,29,26.2,29,26.2,29L26.2,29z
			 M26.5,31.6L26.5,31.6c-0.1,0-0.1,0-0.2,0C26.4,31.5,26.4,31.5,26.5,31.6c0.1,0,0.2,0,0.2,0C26.7,31.6,26.6,31.6,26.5,31.6
			L26.5,31.6z M26.6,29.2L26.6,29.2c0.1,0,0.2,0,0.3,0c0.1,0,0.1,0,0.2,0.1C26.8,29.3,26.7,29.2,26.6,29.2z M27.1,30.9L27.1,30.9
			C27.1,30.9,27.1,30.9,27.1,30.9c-0.1,0-0.2,0-0.2,0c0,0,0,0,0.1,0C27,30.9,27.1,30.9,27.1,30.9L27.1,30.9z M26.7,31.9L26.7,31.9
			L26.7,31.9c0.1,0,0.1,0,0.2,0c0,0,0,0,0,0C26.8,31.9,26.7,31.9,26.7,31.9L26.7,31.9z M27.2,31.7L27.2,31.7c-0.1,0-0.2,0-0.3-0.1
			C27,31.7,27.1,31.7,27.2,31.7c0.1,0,0.1,0,0.2,0c0.1,0,0.1,0,0.1,0C27.4,31.7,27.2,31.8,27.2,31.7L27.2,31.7z M26.6,29.1
			L26.6,29.1C26.6,29.1,26.6,29,26.6,29.1c0,0,0.1,0,0.1,0c0.2,0.1,0.5,0.1,0.7,0.1c0,0,0.1,0,0.1,0C27.2,29.2,26.9,29.2,26.6,29.1
			L26.6,29.1z M28.8,31.9L28.8,31.9c-0.1,0-0.3,0-0.4,0c-0.1,0-0.5,0-0.4-0.1c0.4,0,0.8,0,1.2-0.1C29.2,31.9,29,31.9,28.8,31.9z
			 M29.1,31.8L29.1,31.8C29.1,31.8,29,31.8,29.1,31.8C29,31.8,29.1,31.8,29.1,31.8c0.1-0.1,0.2-0.1,0.2-0.1
			C29.3,31.8,29.2,31.8,29.1,31.8L29.1,31.8z M33.5,29.6C33.5,29.6,33.5,29.6,33.5,29.6L33.5,29.6C33.5,29.6,33.5,29.6,33.5,29.6
			C33.5,29.6,33.5,29.6,33.5,29.6C33.5,29.6,33.5,29.6,33.5,29.6z M33.5,29.5C33.5,29.5,33.5,29.6,33.5,29.5c0,0,0.1-0.1,0.2-0.1
			C33.7,29.4,33.6,29.5,33.5,29.5z M34.3,28.9C34.3,28.9,34.2,28.9,34.3,28.9L34.3,28.9L34.3,28.9C34.3,28.9,34.3,28.9,34.3,28.9z
			 M34.3,28.9c0.1-0.1,0.1-0.1,0.2-0.2c0,0,0,0,0,0C34.4,28.7,34.3,28.8,34.3,28.9C34.3,28.9,34.3,28.9,34.3,28.9z M34.3,28.9
			C34.3,28.9,34.3,28.9,34.3,28.9C34.3,28.9,34.3,28.9,34.3,28.9C34.3,28.9,34.3,28.9,34.3,28.9z M31.6,31.2L31.6,31.2L31.6,31.2
			L31.6,31.2z"/>
		<path class="st1" d="M24.4,4.7C24.4,4.7,24.4,4.7,24.4,4.7c-0.1-0.1-0.1-0.2-0.1-0.2c0,0,0-0.1-0.1-0.1c0,0-0.1-0.1-0.1-0.2
			c0-0.1-0.1-0.1-0.1-0.1C24,3.9,24,3.9,24,3.8c0,0,0,0,0.1,0.1s0.1,0.1,0.1,0.2c-0.2-0.3-0.3-0.5-0.5-0.8c-0.2-0.3-0.4-0.5-0.7-0.8
			c0.1,0.1,0.2,0.2,0.3,0.3c0.1,0.1,0.2,0.2,0.3,0.3s0.2,0.2,0.3,0.3c0,0.1,0.1,0.1,0.1,0.2c0,0.1,0.1,0.1,0.1,0.2
			C24.2,4.2,24.4,4.6,24.4,4.7L24.4,4.7z M23.6,9.5c0.1-0.3,0.2-0.6,0.2-0.9c0.1-0.3,0.1-0.7,0.1-1c0,0,0,0.1,0,0.2
			c0,0.1,0,0.1,0,0.2c0,0.1,0,0.1,0,0.2c0,0,0,0,0,0s0-0.1,0-0.2c0,0.3-0.1,0.5-0.1,0.7c0,0,0-0.2,0-0.2C23.9,8.8,23.8,9.2,23.6,9.5
			L23.6,9.5z M10.6,8.1C10.5,8.1,10.5,8.1,10.6,8.1c0,0,0-0.1-0.1-0.3c0-0.1,0-0.3,0-0.4c0,0,0,0.1,0,0.2c0,0,0-0.2,0-0.5
			c0,0.1,0,0.1,0,0.2c0,0.1,0,0.2,0,0.4c0,0.3,0,0.7,0.1,1.2C10.6,8.7,10.5,8.4,10.6,8.1c-0.1-0.3-0.1-0.5-0.1-0.7
			c0-0.1,0-0.2,0-0.3s0-0.2,0-0.4c0,0.1,0,0.3,0,0.4c0,0,0-0.2,0.1-0.4c0-0.1,0-0.2,0-0.3c0-0.1,0-0.2,0.1-0.3
			c-0.1,0.3-0.1,0.8-0.1,1.6c0,0,0-0.1,0-0.2c0-0.1,0-0.2,0-0.2C10.6,7.8,10.5,7.8,10.6,8.1L10.6,8.1z M10.5,5.9
			c-0.1,0.4-0.1,0.8-0.2,1.3c0,0.2,0,0.4,0,0.6c0,0.1,0,0.2,0,0.3c0,0,0,0.1,0,0.1c0,0,0,0.1,0,0.1c0-0.1,0-0.2,0-0.3
			c0-0.1,0-0.3,0-0.4c0-0.1,0-0.1,0-0.2c0-0.1,0-0.1,0-0.2c0-0.1,0-0.3,0-0.3c0-0.4,0.1-0.7,0.1-1.1c0-0.1,0-0.2,0-0.2
			c0,0,0-0.1,0-0.1l0-0.1c0-0.1,0-0.2,0.1-0.2c0-0.1,0.1-0.2,0.1-0.2c0,0.1-0.1,0.2,0,0.1c0,0-0.2,0.5-0.1,0.4c0,0,0,0,0,0.1
			c0,0,0,0.1,0,0.1C10.5,5.5,10.5,5.8,10.5,5.9L10.5,5.9z M16.9,0.1c-0.2,0-0.7,0.1-1.1,0.3c-0.4,0.1-0.8,0.3-1.1,0.5
			c0,0,0.1-0.1,0.3-0.2c0.1,0,0.2-0.1,0.3-0.1c0.1,0,0.2-0.1,0.4-0.1C16.1,0.3,16.7,0.1,16.9,0.1c0,0,0.5-0.1,1.1-0.1
			c-0.1,0-0.1,0-0.2,0c-0.1,0-0.2,0-0.3,0C17.2,0.1,17,0.1,16.9,0.1C16.7,0.1,16.8,0.1,16.9,0.1L16.9,0.1z M24.4,5.7
			c0-0.1,0-0.1-0.1-0.2c0-0.1-0.1-0.2-0.1-0.3c-0.1-0.2-0.1-0.4-0.2-0.4c0,0,0,0.1,0.1,0.1c0,0,0,0.1,0,0.1c0,0.1,0.1,0.1,0.1,0.2
			c0,0.1,0.1,0.2,0.1,0.2c0,0,0,0,0-0.1c0,0,0-0.1-0.1-0.2c0-0.1-0.1-0.2-0.1-0.3c0.2,0.5,0.3,0.9,0.4,1.3c0.1,0.4,0.1,0.8,0.2,1.2
			C24.7,6.8,24.6,6.2,24.4,5.7c-0.1-0.6-0.3-1-0.4-1.3c0.1,0.2,0.2,0.3,0.2,0.5c0,0.1,0.1,0.2,0.1,0.2c0,0.1,0.1,0.2,0.1,0.2
			C24.4,5.5,24.4,5.5,24.4,5.7c0.1,0,0.1,0.1,0.1,0.1c0,0.1,0.1,0.3,0.1,0.4c0,0.2,0.1,0.3,0,0.1c0,0,0-0.1,0-0.1c0-0.1,0-0.1,0-0.2
			c0-0.2-0.1-0.4-0.2-0.6c0,0.1,0,0.1,0.1,0.2c0,0.1,0,0.1,0,0.1c0-0.1-0.1-0.2-0.1-0.3c0-0.1-0.1-0.2-0.1-0.2
			c0.1,0.2,0.2,0.5,0.2,0.7c-0.1-0.4-0.2-0.7-0.3-1c-0.1-0.3-0.2-0.5-0.4-0.8c-0.1-0.2-0.3-0.5-0.5-0.7c-0.2-0.2-0.4-0.5-0.6-0.7
			c0.1,0.1,0.2,0.2,0.3,0.4c0.1,0.1,0.1,0.1,0.2,0.2c0.1,0.1,0.1,0.1,0.1,0.2c-0.1-0.1-0.2-0.2-0.2-0.2c0.3,0.3,0.5,0.7,0.7,1.1
			c0.2,0.4,0.4,0.9,0.6,1.4c-0.2-0.8-0.5-1.5-0.9-2.1c-0.2-0.3-0.4-0.6-0.6-0.8c-0.2-0.2-0.5-0.5-0.7-0.7c-0.5-0.4-1-0.7-1.6-1
			c-0.3-0.1-0.6-0.2-0.9-0.3c-0.3-0.1-0.6-0.2-0.9-0.2c0.1,0,0.2,0,0.3,0c0.1,0,0.1,0,0.2,0c-0.3-0.1,0,0,0,0c-0.1,0-0.1,0-0.2,0
			c0,0-0.1,0-0.1,0c0,0-0.1,0-0.1,0c-0.1,0-0.3,0-0.3,0c0.1,0,0.3,0,0.3,0c-0.4,0-0.7-0.1-1-0.1c-0.1,0-0.1,0-0.2,0
			c-0.1,0-0.1,0-0.2,0c-0.1,0-0.2,0-0.3,0c0,0,0.1,0,0.2,0c0.1,0,0.2,0,0.1,0c-0.3,0-0.7,0.1-1.2,0.2c-0.1,0-0.2,0.1-0.3,0.1
			c-0.1,0-0.2,0.1-0.3,0.1C15.7,1,15.6,1,15.5,1c-0.1,0-0.2,0.1-0.2,0.1c0.1,0,0.2-0.1,0.3-0.1c0.1,0,0.1-0.1,0.2-0.1
			c0.1,0,0.2-0.1,0.3-0.1c0.4-0.1,0.8-0.2,1.1-0.2c-0.4,0.1-0.8,0.2-1.1,0.3c-0.4,0.1-0.7,0.3-1,0.4c-0.7,0.3-1.3,0.8-2,1.5
			c0.1-0.1,0.1-0.1,0.2-0.2c0.1-0.1,0.1-0.1,0.2-0.2c0.1-0.1,0.2-0.2,0.2-0.2c0.1-0.1,0.1-0.1,0.2-0.2C13.9,2,14,1.9,14.1,1.8
			c0,0,0.2-0.2,0.4-0.3c0.1-0.1,0.2-0.1,0.4-0.2c0.1-0.1,0.2-0.1,0.3-0.2c0,0-0.1,0-0.1,0c-0.1,0.1-0.2,0.1-0.3,0.2
			c-0.1,0.1-0.2,0.1-0.3,0.1c-0.1,0-0.2,0.1-0.3,0.1c-0.1,0.1-0.2,0.1-0.3,0.2c0,0,0.2-0.1,0,0c-0.3,0.2-0.8,0.6-1.2,1.1
			c-0.4,0.5-0.9,1.2-1.1,2c0,0,0-0.1,0.1-0.2c0-0.1,0.1-0.2,0.1-0.3c0.1-0.1,0.1-0.2,0.2-0.4c0.1-0.1,0.1-0.2,0.2-0.3
			c0.1-0.1,0.1-0.2,0.2-0.2c0-0.1,0.1-0.1,0.1-0.1c0,0,0,0-0.1,0.1c0,0-0.1,0.1-0.1,0.1c0,0.1-0.1,0.1-0.1,0.2
			c0.1-0.1,0.1-0.2,0.2-0.3c0,0,0-0.1,0.1-0.1c0,0,0.1-0.1,0.1-0.2c0.1-0.2,0.3-0.4,0.5-0.6c0.2-0.2,0.2-0.2,0.3-0.3
			c0,0,0.1,0,0.1-0.1c0,0,0.1,0,0.1-0.1c0,0,0.1-0.1,0.1-0.1c-0.1,0,0.2-0.2,0-0.1c0,0-0.2,0.2-0.3,0.2c0-0.1,0.4-0.3,0.4-0.4
			c-0.1,0-0.1,0.1-0.2,0.2c-0.1,0.1-0.2,0.2-0.3,0.3c-0.2,0.2-0.4,0.4-0.6,0.6c0,0,0.1-0.1,0.2-0.3c0-0.1,0.1-0.1,0.2-0.2
			s0.1-0.1,0.2-0.2c0.1-0.1,0.2-0.2,0.3-0.3c0.1-0.1,0.1-0.1,0.1-0.1C13.6,2,13.6,2,13.7,1.9c0,0-0.2,0.2-0.1,0.1
			c0.1-0.1,0.1-0.1,0.2-0.2c-0.1,0.1-0.1,0.1-0.2,0.2c-0.1,0-0.1,0.1-0.2,0.1c-0.1,0.1-0.2,0.2-0.2,0.2c0,0-0.1,0.1-0.1,0.1
			c0,0-0.1,0.1-0.1,0.1c-0.1,0.1-0.1,0.1-0.2,0.2c0.2-0.2,0.5-0.5,0.8-0.7c0.3-0.2,0.6-0.4,0.9-0.6c0.3-0.2,0.6-0.3,0.9-0.4
			c0.1-0.1,0.3-0.1,0.4-0.1c0.1,0,0.2-0.1,0.3-0.1c-0.1,0,0.1-0.1,0.3-0.1c0.2,0,0.3-0.1,0.1,0c0.2-0.1,0.5-0.1,0.7-0.1
			c-0.1,0,0.1,0-0.1,0c0,0-0.1,0-0.1,0c0.4-0.1,0.9-0.1,1.3-0.1c0.4,0,0.9,0.1,1.2,0.1c-0.1,0-0.2,0-0.2,0c-0.1,0-0.1,0-0.2,0
			c-0.1,0-0.1,0-0.2,0c0,0-0.1,0-0.1,0c-0.2,0-0.2,0-0.3,0c0,0,0,0,0.1,0c0.1,0,0.2,0,0.4,0c-0.1,0-0.1,0-0.2,0c-0.1,0-0.2,0-0.3,0
			c-0.2,0-0.4,0-0.5,0c0.5,0,1,0,1.1,0.1c0.1,0,0,0-0.1,0c-0.1,0-0.1,0-0.3,0c-0.1,0-0.1,0-0.2,0c-0.1,0-0.2,0-0.2,0
			c0,0,0.1,0,0.2,0c-0.4,0-0.4,0-0.7,0c0.1,0,0.2,0,0.3,0c0.1,0,0.1,0,0.2,0c0.1,0,0.2,0,0.3,0c0.1,0,0.2,0,0.2,0c0,0,0.1,0,0.2,0
			c0.1,0,0.1,0,0.2,0c0.1,0,0.1,0,0.1,0c0,0,0.1,0,0.2,0c0,0,0.2,0.1,0.5,0.1c0.1,0,0.3,0.1,0.4,0.1c0.1,0,0.2,0.1,0.3,0.1
			c-0.2-0.1-0.3-0.1-0.4-0.1c-0.1,0-0.2-0.1-0.3-0.1c-0.1,0-0.2,0-0.3-0.1c-0.1,0-0.1,0-0.2,0c-0.1,0-0.2,0-0.3-0.1c0,0,0,0-0.1,0
			c0,0-0.1,0-0.3,0c-0.1,0-0.3,0-0.5,0c-0.2,0-0.4,0-0.6,0c-0.1,0-0.2,0-0.3,0c-0.1,0-0.2,0-0.3,0c0,0,0,0-0.1,0c-0.1,0-0.2,0-0.3,0
			c-0.1,0-0.2,0.1-0.3,0.1c-0.1,0-0.2,0.1-0.2,0.1c-0.2,0-0.5,0.1-0.8,0.2c0.1,0,0,0,0,0c0,0-0.1,0-0.1,0.1c-0.1,0-0.1,0.1-0.2,0.1
			c-0.1,0.1-0.3,0.1-0.4,0.2c-0.1,0.1-0.3,0.1-0.4,0.2c0.3-0.2,0.5-0.3,0.8-0.4c0.1,0,0.1-0.1,0.2-0.1c0.1,0,0.1-0.1,0.2-0.1
			c0.1-0.1,0.3-0.1,0.5-0.2c-0.4,0.1-0.8,0.3-1,0.4C14.8,0.9,14.6,1,14.5,1c-0.1,0.1-0.2,0.1-0.3,0.2c-0.4,0.2-0.7,0.5-1,0.7
			C13.2,2,13.1,2,13,2.1c-0.1,0.1-0.1,0.1-0.2,0.2c-0.1,0.1-0.2,0.2-0.3,0.3c-0.1,0.1-0.2,0.2-0.2,0.3c0,0-0.1,0.1-0.1,0.1
			c0,0.1-0.1,0.1-0.1,0.2S12,3.2,12,3.3c0,0.1-0.1,0.1-0.1,0.2c-0.1,0.1-0.1,0.2-0.2,0.3c0.3-0.5,0.6-0.9,0.8-1.2
			c0.3-0.3,0.5-0.5,0.7-0.8C13,2,12.8,2.2,12.7,2.4c-0.2,0.2-0.3,0.3-0.4,0.5C12.2,3,12.1,3,12.1,3.1c-0.1,0.1-0.1,0.2-0.2,0.3
			c-0.1,0.2-0.3,0.5-0.5,0.8c-0.1,0.1,0.1-0.2,0,0c0,0.1-0.1,0.2-0.1,0.3c0,0.1-0.1,0.2-0.1,0.2c0,0.1-0.1,0.1-0.1,0.1
			c0,0,0-0.1,0.1-0.2c0-0.1,0.1-0.1,0.1-0.2c0-0.1,0.1-0.2,0.1-0.3c-0.1,0-0.2,0.5-0.3,0.7C11.2,4.5,11,4.9,11,4.9
			c0,0.1,0,0.1,0.1-0.2c0,0.1,0,0.2-0.1,0.3S11,5.4,10.9,5.5c0,0,0-0.1,0-0.2c0-0.1,0.1-0.2,0-0.1c0,0.1,0,0-0.1,0.4
			c0,0,0-0.1,0-0.1c-0.1,0.3-0.1,0.5-0.2,0.8c0,0.1,0,0.2-0.1,0.3c0,0.1,0,0.2,0,0.3c0-0.5,0.1-1,0.3-1.4c0.1-0.4,0.3-0.8,0.4-1.2
			s0.4-0.7,0.6-1.1c0.2-0.3,0.5-0.7,0.9-1c-0.1,0-0.2,0.1-0.3,0.3c-0.1,0.1-0.3,0.3-0.4,0.4c0,0-0.1,0.1-0.1,0.1C12,2.9,12,3,12,3
			c-0.1,0.1-0.1,0.2-0.2,0.2c-0.1,0.1-0.2,0.2-0.2,0.3c-0.1,0.1-0.1,0.2-0.2,0.3c0,0.1-0.1,0.1-0.1,0.2c0,0,0,0.1,0,0.1
			c0,0,0,0.1,0,0.1c0,0.1-0.1,0.1-0.1,0.2c0,0.1-0.1,0.2-0.1,0.2C11,4.8,11,5,10.9,5.1c-0.2,0.6-0.3,1.3-0.4,1.8c0,0.1,0,0.2,0,0.3
			c0,0.1,0,0.2,0,0.3c0,0.2,0,0.5,0,0.9c0,0,0,0,0,0.1c0-0.3,0,0.2,0-0.3c0,0.1,0,0.2,0,0.3c0,0.1,0,0.1,0.1,0.3c0,0-0.1-0.2,0,0
			c0,0,0,0.1,0.1,0.2s0,0.2,0.1,0.3c0,0.1,0-0.1,0-0.1c0.1,0.5,0.1,0.5,0.2,0.7c0,0,0,0,0.1,0.1c0.1,0.2,0,0,0.1,0.3
			c0-0.1,0,0,0.1,0.1c0,0.1,0.1,0.2,0.1,0.2c0-0.1-0.1-0.1-0.1-0.1c0.1,0.2,0.1,0.2,0.1,0.3s0,0,0.1,0.1c-0.1-0.2-0.2-0.5-0.2-0.6
			c0.1,0.1,0.1,0.2,0.1,0.2c0,0,0,0,0,0c0,0-0.1-0.2,0-0.2c0,0.1,0.1,0.2,0.1,0.2c0,0.1,0.1,0.2,0.1,0.2c0.1,0.2,0.2,0.4,0.4,0.7
			c0,0,0,0.1,0,0.1c-0.1-0.1-0.3-0.6-0.4-0.7c0.2,0.3,0.3,0.5,0.4,0.8c0.1,0.1,0.2,0.2,0.2,0.3c0,0.1,0.1,0.1,0.1,0.2
			c0,0,0.1,0.1,0.1,0.1c0,0,0.1,0.1,0.1,0.1c0,0-0.1-0.1-0.1-0.1c0.1,0.1,0.2,0.2,0.2,0.2c0.1,0.1,0.1,0.1,0.3,0.3
			c0,0-0.2-0.1-0.2-0.2c0.1,0.1,0.1,0.1,0.2,0.2c0,0,0.1,0.1,0.1,0.1c0,0-0.1,0-0.1-0.1c0,0-0.1-0.1-0.1-0.1c0,0-0.1-0.1-0.1-0.1
			c0,0-0.1-0.1-0.1-0.1c0.1,0.1,0.3,0.3,0.2,0.3c-0.2-0.1-0.6-0.6-0.4-0.5c-0.1-0.1-0.4-0.4-0.6-0.8c-0.2-0.4-0.4-0.8-0.5-1.1
			c0,0,0.2,0.5,0.2,0.3c0-0.1-0.1-0.2-0.1-0.3c0-0.1-0.1-0.1-0.1-0.2c0-0.1,0-0.1,0-0.1c-0.1-0.2-0.1-0.1-0.1-0.4
			c-0.1-0.1,0.1,0.2,0,0.2c0-0.1-0.1-0.2-0.1-0.3c0-0.1,0-0.1,0-0.2c0,0.1,0,0.1-0.1-0.2c0,0.2,0.1,0.3,0.1,0.4
			c0,0.1,0.1,0.2,0.1,0.4c0-0.1-0.1-0.2-0.1-0.2c0,0,0-0.1-0.1-0.1c0,0,0-0.1,0-0.1c-0.1-0.2-0.1-0.4-0.2-0.6c0,0,0.1,0.4,0.1,0.3
			c0-0.1,0-0.2-0.1-0.3c0-0.1-0.1-0.4-0.1-0.6c0-0.1,0-0.3,0-0.3c0-0.1,0-0.1,0-0.1c0,0.2,0,0.3,0,0.3c0,0.1,0,0.1,0,0.2
			c0,0,0,0.1,0,0.1c0,0.1,0,0.1,0,0.1c0,0,0-0.3-0.1-0.3c0,0.2,0.1,0.6,0.2,1.1c0,0.1,0,0.1,0.1,0.2c0,0.1,0,0.1,0.1,0.2
			c0,0.1,0,0.1,0.1,0.2c0,0.1,0,0.1,0.1,0.2c0,0.1,0.1,0.2,0.1,0.3c0,0.1,0.1,0.2,0.1,0.3c0,0,0,0.1,0.1,0.2c0,0.1,0.1,0.1,0.1,0.2
			c0,0.1,0.1,0.1,0.1,0.1c0-0.1-0.1-0.1-0.1-0.2c0-0.1-0.1-0.1-0.1-0.2c0-0.1-0.1-0.2-0.1-0.3S11,10.5,11,10.3
			c0-0.1-0.1-0.1-0.1-0.2c0-0.1-0.1-0.2-0.1-0.3c0,0.1,0,0.1,0,0.1c0.2,0.4,0.2,0.6,0.3,0.8c0,0-0.1-0.2-0.1-0.3
			c-0.1-0.1-0.1-0.3-0.1-0.3c0.1,0.2,0.1,0.3,0.1,0.4c0,0.1,0.1,0.2,0.1,0.2c0-0.1,0-0.1,0-0.1c0,0.1,0.1,0.2,0.1,0.3
			c0.1,0.1,0.1,0.2,0.2,0.4c0,0.1,0,0-0.1-0.1c-0.1-0.1-0.1-0.2-0.1-0.2c0.1,0.1,0.3,0.5,0.2,0.4c0.2,0.3,0.3,0.5,0.5,0.8
			c0,0,0,0,0-0.1c0-0.1-0.1-0.1-0.1-0.1c0.1,0.1,0.2,0.3,0.3,0.4c0.1,0.1,0.2,0.2,0.2,0.3c-0.1-0.2-0.2-0.2-0.2-0.3
			c0-0.1-0.1-0.1-0.2-0.2c0.1,0.1,0.2,0.2,0.2,0.3c-0.3-0.3-0.4-0.5-0.5-0.6c-0.1-0.1-0.1-0.1-0.2-0.2c-0.1-0.1-0.1-0.2-0.2-0.4
			c0,0.1,0.1,0.1,0.1,0.2c0,0,0,0.1,0.1,0.1c0,0,0.1,0.1,0.1,0.1c-0.2-0.2-0.5-0.8-0.8-1.6c0,0.1,0.1,0.3,0.1,0.2
			c-0.1-0.4-0.2-0.7-0.3-1c0-0.1,0-0.2-0.1-0.2c0-0.1,0-0.2-0.1-0.3c0-0.1,0-0.2-0.1-0.3c0-0.1,0-0.1,0-0.2c0-0.1,0-0.1,0-0.2
			c0,0,0,0.5,0.1,0.9c0.1,0.5,0.3,0.9,0.3,1.1c0,0.1,0,0.1,0.1,0.2c0,0.1,0.1,0.2,0.1,0.3c0.1,0.2,0.2,0.4,0.3,0.7
			c0.1,0.1,0.1,0.2,0.2,0.3c0.1,0.1,0.1,0.2,0.1,0.2c0.1,0.1,0.1,0.2,0.1,0.2c-0.1-0.1-0.1-0.2-0.2-0.3c0-0.1-0.1-0.1-0.2-0.2
			c0.3,0.4,0.5,0.8,0.8,1.1c0.3,0.3,0.6,0.6,0.9,0.9c-0.1-0.1-0.2-0.1-0.2-0.2c-0.1-0.1-0.1-0.1-0.2-0.2C12.6,13,12.5,13,12.5,13
			c0.1,0.1,0.1,0.1,0.2,0.2c0.1,0.1,0.2,0.2,0.3,0.2c0.1,0.1,0.2,0.2,0.4,0.3c0.1,0.1,0.3,0.2,0.5,0.3c0,0.1-0.3-0.1-0.4-0.2
			c0.1,0.1,0.2,0.1,0.2,0.2c0.1,0.1,0.2,0.1,0.3,0.2c0.2,0.1,0.3,0.2,0.5,0.3c0.1,0.1,0.3,0.1,0.3,0.1c0.1,0,0.1,0,0,0
			c0,0-0.2-0.1-0.3-0.1c-0.1-0.1-0.3-0.1-0.3-0.1c0.1,0-0.1-0.1-0.2-0.2c0.5,0.3,0.9,0.5,1.3,0.7c0.4,0.2,0.8,0.3,1.3,0.4
			c-0.1,0,0,0,0,0c0.1,0,0.1,0-0.1,0c0.2,0,0.5,0.1,0.6,0.1c0.2,0,0.3,0,0.4,0c0.1,0,0.1,0,0.1,0c0,0,0.1,0,0.1,0c0.1,0,0.1,0,0.1,0
			c0,0,0,0-0.1,0c0,0-0.1,0-0.1,0c0,0-0.1,0-0.1,0c-0.2,0-0.5,0-0.8-0.1c-0.1,0,0,0-0.1,0c-0.1,0-0.1-0.1-0.1-0.1c0.1,0,0.2,0,0.3,0
			c0.3,0,0.6,0.1,0.4,0c0.1,0,0.2,0,0.3,0c0.1,0,0.1,0,0.2,0c0,0,0.1,0,0.1,0c0.1,0,0.2,0,0.3,0c0.1,0,0.2,0,0.3,0c0,0,0.1,0,0.1,0
			c0.1,0,0.2,0,0.2,0s0.2,0,0.2,0c0,0,0,0,0,0c-0.3,0-0.4,0-0.6,0c-0.1,0-0.1,0-0.3,0c-0.1,0-0.2,0-0.4,0c0,0,0.2,0,0,0
			c0,0-0.3,0-0.4,0c0.3,0,0.3,0,0.1,0c0.1,0,0.2,0,0.4,0c0.1,0,0.3,0,0.4,0c0.2,0,0.3,0,0.3,0c0.3,0,0.5,0,0.8-0.1
			c0.1,0,0.1,0,0.2,0c0.1,0,0.1,0,0.2,0c0.1,0,0.2,0,0.3-0.1c0,0,0.1,0,0,0c-0.2,0-0.3,0.1-0.4,0.1c0,0-0.1,0-0.1,0c0,0-0.1,0-0.1,0
			c0.1,0,0.3,0,0.4-0.1c0.1,0,0.1,0,0.1,0c0,0,0.1,0,0.1,0c0.1,0,0.1,0,0.2-0.1s0.2,0,0.2-0.1c-0.1,0-0.2,0-0.1,0
			c0.5-0.1,1-0.3,1.5-0.5c-0.5,0.3-0.9,0.4-1.3,0.5c0,0,0.1,0,0.1,0c0,0,0.1,0,0.1,0c0.1,0,0.1,0,0.1,0c-0.1,0-0.2,0.1-0.3,0.1
			c-0.1,0-0.2,0.1-0.3,0.1c-0.1,0-0.2,0-0.3,0.1c-0.1,0-0.2,0-0.3,0.1c-0.5,0.1-0.9,0.1-1.2,0.1c0.1,0,0.2,0,0.3,0
			c0.1,0,0.2,0,0.3,0c-0.2,0-0.3,0-0.3,0c-0.1,0-0.1,0-0.1,0c0.3,0,0.7,0,1.1-0.1c0.4-0.1,0.8-0.2,1.1-0.3c0.8-0.2,1.5-0.6,2-1
			c0,0-0.1,0.1,0,0c0,0,0,0,0.1-0.1c0,0,0,0,0.1,0c-0.2,0.1,0.2-0.2,0-0.1c-0.1,0.1-0.2,0.2-0.3,0.2c-0.1,0.1-0.2,0.1-0.3,0.2
			c-0.1,0.1-0.2,0.1-0.3,0.2c-0.1,0-0.1,0.1-0.2,0.1c-0.1,0-0.1,0.1-0.2,0.1c0.1,0,0.2-0.1,0.2-0.1c0.1,0,0.1-0.1,0.2-0.1
			c0.1-0.1,0.2-0.1,0.3-0.2c0,0,0.1-0.1,0.2-0.1c0.1,0,0.1-0.1,0.2-0.1c0,0,0.1-0.1,0.1-0.1c0,0,0.1-0.1,0.1-0.1
			c0,0,0.1-0.1,0.2-0.1c0.1,0,0.1-0.1,0.2-0.1c0,0,0,0,0.1-0.1c-0.4,0.3-0.7,0.5-0.8,0.6c-0.1,0.1-0.4,0.2-0.7,0.4
			c0.1-0.1,0.2-0.1,0.3-0.2c0.1-0.1,0.2-0.1,0.3-0.2c-0.1,0.1-0.2,0.1-0.2,0.1c0,0,0.1-0.1,0.2-0.1c0.1-0.1,0.2-0.1,0.4-0.2
			c-0.1,0-0.2,0.1-0.3,0.2C22.1,14,22,14,22,14c-0.1,0-0.1,0.1-0.2,0.1c-0.3,0.2-0.7,0.4-1.1,0.5c0.1,0,0.2-0.1,0.2-0.1
			c0.1,0,0.2-0.1,0.2-0.1c-0.5,0.2-0.2,0.1-0.1,0c-0.1,0.1-0.2,0.1-0.3,0.1c-0.1,0-0.2,0.1-0.3,0.1c-0.1,0-0.2,0-0.3,0.1
			c0,0-0.1,0-0.2,0c-0.1,0-0.1,0-0.2,0c0.1,0,0.2,0,0.2-0.1c-0.1,0-0.3,0.1-0.4,0.1c-0.1,0-0.2,0-0.3,0c-0.1,0,0.2,0,0.1,0
			c-0.2,0-0.3,0-0.3,0c0,0,0,0-0.1,0c0,0-0.2,0-0.3,0.1c-0.1,0-0.3,0-0.4,0c-0.1,0-0.1,0,0,0c0.1,0,0.1,0,0.2,0c0.1,0,0.2,0,0.3,0
			c0.1,0,0.2,0,0.3,0c0.1,0,0.2,0,0.3-0.1c0.2,0,0.3-0.1,0.3-0.1c0,0-0.2,0-0.3,0.1c-0.1,0-0.3,0-0.3,0c0.5-0.1,1-0.2,1.3-0.3
			c-0.2,0.1-0.2,0,0,0c0.1-0.1-0.2,0.1-0.2,0c0.1,0,0.2-0.1,0.2-0.1c0.1,0,0.1,0,0.2-0.1c0.1,0,0.2-0.1,0.2-0.1
			c-0.1,0-0.4,0.2-0.2,0.1c0.1,0,0.1,0,0.2-0.1c0.1,0,0.1-0.1,0.2-0.1c0.1,0,0.1,0-0.1,0.1c0,0,0,0-0.1,0c0.1,0,0,0-0.1,0.1
			c0,0,0.1,0,0.1,0c0,0,0.1,0,0.1,0c0.1,0,0.1,0,0.1-0.1c0.1,0,0.1-0.1,0.2-0.1c0.4-0.3,0.8-0.5,1.1-0.7c0.1-0.1,0.2-0.2,0-0.1
			c0.2-0.1,0.3-0.2,0.4-0.3c0,0,0.1-0.1,0.1-0.1c0,0,0.1-0.1,0.1-0.1c0,0-0.1,0.1-0.1,0.1c-0.1,0-0.1,0.1-0.2,0.1
			c-0.1,0.1-0.2,0.2-0.3,0.3c0,0-0.1,0.1-0.1,0.1c0,0-0.1,0.1-0.1,0.1c0,0-0.1,0-0.1,0c0,0-0.1,0.1-0.1,0.1c0.1-0.1,0.3-0.2,0.3-0.2
			c0.1-0.1,0.1-0.1,0,0c0.1-0.1,0.1-0.1,0.2-0.2c0.1-0.1,0.1-0.1,0.2-0.1c0,0,0.1-0.1,0.1-0.1c0,0,0-0.1,0.1-0.1
			c0,0,0.1-0.1,0.2-0.1c0.1-0.1,0.2-0.2,0.3-0.3c0.1-0.1,0.2-0.2,0.3-0.3c0.1-0.1,0.2-0.2,0.2-0.3C24.1,11.9,24,12,24,12.1
			c-0.1,0.1-0.2,0.2-0.3,0.3c-0.1,0.1-0.2,0.2-0.3,0.3c-0.1,0.1-0.2,0.2-0.3,0.3c0,0,0,0.1-0.1,0.1c0,0-0.1,0.1-0.1,0.1
			c0,0-0.1,0.1-0.1,0.1c-0.2,0.1-0.3,0.2-0.3,0.3c-0.1,0-0.1,0.1-0.2,0.1c-0.1,0.1-0.2,0.1-0.3,0.2c-0.1,0.1-0.2,0.1-0.3,0.2
			s-0.2,0.1-0.2,0.1c0.2-0.1,0.4-0.2,0.7-0.4c0.1,0,0.1-0.1,0.2-0.1c0.1,0,0.1-0.1,0.2-0.1c0.1-0.1,0.2-0.2,0.3-0.3
			c-0.2,0.2-0.3,0.2-0.2,0.1c0.1-0.1,0.2-0.2,0.4-0.4c0.1-0.1,0.2-0.2,0.3-0.3c0.1-0.1,0.2-0.2,0.3-0.3c0.1-0.1,0.2-0.2,0.2-0.3
			c0.1-0.1,0.1-0.2,0.2-0.2c-0.1,0.1-0.2,0.3-0.2,0.3c0.1-0.1,0.2-0.3,0.4-0.5c0,0-0.1,0.1-0.1,0.1c0.1-0.1,0.1-0.2,0.2-0.3
			c0.1-0.1,0.1-0.2,0.2-0.3c0.1-0.2,0.2-0.3,0.2-0.3c-0.1,0.1-0.1,0.2-0.1,0.2c0.1-0.1,0.1-0.2,0.1-0.3c0,0,0,0,0,0
			c0,0.1-0.1,0.1-0.1,0.2c0,0,0,0.1,0,0.1c0,0.1,0,0.1-0.1,0.2c0,0,0.2-0.3,0.1-0.2c0,0,0,0.1-0.1,0.1c0,0.1-0.1,0.1-0.1,0.2
			c-0.1,0.1-0.2,0.2-0.2,0.3c0.1-0.2-0.2,0.2-0.1,0c0,0.1-0.1,0.1-0.1,0.2c0,0-0.1,0.1-0.1,0.1c0,0-0.1,0.1-0.1,0.2
			c0,0,0.1-0.1,0.1-0.2c0.1-0.1,0.1-0.2,0.1-0.2c-0.1,0.1-0.1,0.1-0.4,0.5c0-0.1,0.1-0.1,0.2-0.2c0.1-0.1,0.2-0.2,0.3-0.4
			c0,0.1-0.2,0.3-0.3,0.4c0,0,0.1-0.1,0.1-0.1c0,0,0.1-0.1,0.1-0.1c0,0,0.1-0.1,0.1-0.1c0,0,0.1-0.1,0.1-0.1c0,0-0.1,0.1-0.1,0.1
			c0.2-0.3,0.2-0.3,0-0.1c0.1-0.1,0.4-0.6,0.3-0.5c0,0-0.1,0.2-0.2,0.3c-0.1,0.1-0.1,0.2-0.2,0.2c0-0.1,0.1-0.1,0.1-0.2
			c0-0.1,0.1-0.1,0.1-0.2c0,0.1-0.1,0.2-0.1,0.2c0,0,0-0.1,0-0.1c0,0,0.1-0.1,0.2-0.2c0.1-0.1,0.1-0.2,0.1-0.2c0,0-0.1,0.2-0.1,0.2
			c0.1-0.1,0.1-0.1,0.2-0.2c0,0,0-0.1,0.1-0.3c0-0.1,0.1-0.2,0.1-0.3c0-0.1,0.1-0.2,0.1-0.3c-0.1,0.3-0.2,0.6-0.4,0.9
			c0.2-0.4,0.2-0.4,0.2-0.4c-0.1,0.1-0.1,0.2-0.1,0.3c0-0.1,0.1-0.2,0.1-0.2c-0.2,0.4-0.4,0.7-0.5,0.8C24,11.5,24,11.5,24,11.5
			c0,0,0-0.1,0.1-0.1c0-0.1,0.1-0.1,0.1-0.2c0,0,0-0.1,0.1-0.1c0,0,0-0.1,0.1-0.1s0-0.1,0.1-0.1c0-0.1,0-0.1,0.1-0.2
			c-0.1,0.1-0.1,0.2-0.2,0.4c0.1-0.1,0-0.1,0,0c-0.1,0.1-0.2,0.2-0.2,0.2c0.1-0.2,0.4-0.7,0.2-0.4c0,0-0.2,0.4-0.3,0.5
			c0,0-0.1,0.1-0.1,0.1c-0.1,0.1-0.2,0.2-0.2,0.3c-0.1,0.1-0.2,0.2-0.3,0.3c-0.1,0.1-0.1,0.1-0.2,0.2c-0.1,0.1-0.3,0.3-0.4,0.4
			c0,0,0.1-0.1,0.1-0.1c-0.1,0.1-0.2,0.2-0.3,0.3C22.4,13,22.3,13,22.3,13c0.3-0.2,0.7-0.5,0.9-0.8c0,0,0.1-0.1,0.1-0.1
			c0,0,0.1-0.1,0.1-0.1c0.1-0.1,0.1-0.1,0.2-0.2c0.1-0.1,0.2-0.2,0.2-0.2c0,0,0-0.1,0.1-0.2c0.1-0.1,0.2-0.2,0.2-0.2
			c-0.1,0.1-0.3,0.4-0.2,0.3c0.3-0.4,0.4-0.7,0.4-0.7c-0.1,0.2-0.1,0.3-0.2,0.3c0,0,0,0,0.1-0.1c-0.1,0.1-0.2,0.2-0.2,0.3
			c-0.1,0.1-0.1,0.1-0.1,0c0,0.1-0.1,0.2-0.1,0.2c-0.1,0.1-0.1,0.2-0.2,0.2c-0.1,0.1-0.1,0.1-0.2,0.2c-0.1,0.1-0.1,0.1-0.2,0.2
			c0.2-0.1,0.4-0.4,0.2-0.3c0.1-0.1,0.2-0.2,0.2-0.2c0-0.1,0.1-0.1,0.2-0.2c0,0-0.2,0.3-0.2,0.3c0.1-0.1,0.1-0.2,0.2-0.2
			c0-0.1,0.1-0.1,0.1-0.2c0.1-0.1,0.1-0.2,0.2-0.3c0,0.1,0,0.1,0,0c0,0,0.1-0.2,0.2-0.4c0-0.1,0.1-0.2,0.1-0.2c0-0.1,0-0.1,0,0
			c0,0-0.1,0.1-0.1,0.2c0,0.1-0.1,0.2-0.1,0.2c0.1-0.1,0.1-0.3,0.2-0.3c-0.1,0.3-0.3,0.5-0.4,0.7c0,0,0.1-0.1,0.1-0.2
			c0-0.1,0.1-0.1,0,0c0,0-0.1,0.2-0.1,0.2C23.9,11,23.9,11,24,11c0,0,0-0.1,0.1-0.1c0,0,0.1-0.1,0.1-0.2c0,0-0.1,0.1-0.1,0
			c0.1-0.1,0.1-0.2,0.1-0.2c0,0,0-0.1,0.1-0.1c0,0,0-0.1,0.1-0.1c0,0,0,0.1,0,0c0-0.1,0,0,0-0.1c0,0,0.1-0.2,0.1-0.3
			c0-0.1,0.1-0.1,0.1-0.2c0-0.1,0-0.1,0.1-0.2c-0.1,0.3-0.2,0.6-0.5,1.1c0-0.1,0.1-0.2,0.2-0.4c0.1-0.2,0.1-0.3,0.2-0.5
			c0.1-0.4,0.2-0.7,0.2-1c0,0.1,0,0,0,0c0,0.2,0,0.3-0.1,0.3c0,0.1,0,0.1-0.1,0.2c0,0.1,0,0.1,0,0.2c0,0.1-0.1,0.2-0.1,0.3
			c0,0.1-0.1,0.2-0.1,0.3c0,0.1-0.1,0.2-0.1,0.2c0,0,0-0.1,0.1-0.2c0-0.1,0.1-0.2,0-0.1c0,0.1-0.1,0.3-0.1,0.3
			c0.1-0.2,0.2-0.6,0.3-0.9c0-0.1,0.1-0.2,0.1-0.3c0-0.1,0-0.2,0.1-0.2c0-0.1,0-0.2,0-0.2c0-0.1,0-0.1,0-0.2c0,0.1,0,0.3-0.1,0.4
			c0-0.1,0-0.1,0,0c0,0,0,0.1,0,0c-0.1,0.4-0.2,0.9-0.4,1.3c-0.2,0.4-0.3,0.7-0.5,0.9c0.1-0.1,0.1-0.2,0.2-0.3
			c0.1-0.1,0.2-0.3,0.2-0.5c0,0,0-0.1,0.1-0.1c0,0,0-0.1,0-0.1c0-0.1,0.1-0.1,0.1-0.2c0-0.1,0.1-0.2,0.1-0.3
			c-0.1,0.2-0.2,0.5-0.3,0.7c-0.1,0.2-0.1,0.3-0.1,0.2c0,0.1-0.1,0.1-0.1,0.2c0,0.1-0.1,0.2-0.1,0.2c0,0.1-0.1,0.2-0.1,0.2
			c0,0.1-0.1,0.1-0.1,0.1c0.1-0.1,0.1-0.2,0.2-0.3c0.1-0.1,0.1-0.2,0.1-0.3c0,0.1-0.1,0.2-0.2,0.3c-0.1,0.1-0.1,0.2-0.1,0.2
			c0.2-0.3,0.4-0.7,0.5-0.9c0.1-0.1,0.1-0.3,0.1-0.3c0-0.1,0-0.1,0-0.1c0-0.1,0.1-0.2,0.1-0.3c0-0.1,0.1-0.2,0.1-0.2
			c0,0.1-0.1,0.2-0.1,0.3c0,0.1-0.1,0.2-0.1,0.3c0,0.1-0.1,0.2-0.1,0.3c0,0.1-0.1,0.2-0.1,0.2c0,0-0.1,0.2,0,0
			c-0.1,0.1-0.1,0.3-0.2,0.3c0-0.1,0.1-0.1,0.1-0.2c0-0.1,0.1-0.1,0.1-0.2c0-0.1,0.1-0.1,0.1-0.2c0-0.1,0.1-0.1,0.1-0.2
			c0-0.1,0.1-0.1,0.1-0.2c0-0.1,0.1-0.1,0.1-0.2c0-0.1,0.1-0.2,0.1-0.3c0,0,0-0.1,0-0.1c0-0.1,0-0.1,0-0.2c-0.1,0.3-0.2,0.6-0.3,0.9
			c-0.1,0.3-0.2,0.6-0.4,0.8c0.1-0.2,0.3-0.5,0.4-0.8c0-0.1,0.1-0.1,0.1-0.2c0-0.1,0.1-0.1,0.1-0.2c0-0.1,0.1-0.2,0.1-0.3
			c0-0.1,0,0.1-0.1,0.1c0.2-0.5,0.2-1.2,0.2-0.9c0-0.1,0-0.2,0-0.2c0-0.1,0-0.1,0-0.2c0-0.1,0-0.2,0-0.3c0,0.4,0,0.5-0.1,0.7
			c0,0.1,0,0.2-0.1,0.3c0,0.1,0,0.1,0,0.2c0,0.1,0,0.2-0.1,0.3c0,0,0-0.3,0.1-0.6c0.1-0.3,0.1-0.7,0.1-0.8c0,0.2,0,0.3-0.1,0.4
			c0,0.1,0,0.1,0,0.2c0,0.1,0,0.2-0.1,0.4c0-0.3,0.1-0.7,0.1-1.2c0,0.4-0.1,0.8-0.1,1c0,0,0,0.1,0,0.1c0,0,0,0.1-0.1,0.2
			c0,0,0.1-0.1,0.1-0.1c0,0.1-0.1,0.3-0.1,0.4c0,0.1-0.1,0.2-0.1,0.3c0,0.1-0.1,0.2-0.1,0.3c0,0.1,0,0.1-0.1,0.2
			c0,0.1-0.1,0.1-0.1,0.2c0,0,0,0,0-0.1c0-0.1,0.1-0.2,0.1-0.3c0.1-0.3,0.2-0.6,0.2-0.7c-0.1,0.4-0.2,0.6-0.3,0.8
			c0.2-0.5,0.3-1.1,0.4-1.6c0-0.2,0-0.1,0,0.1c0,0.1,0,0.2-0.1,0.4c0,0.1,0,0.1,0,0.2c0,0.1,0,0.1,0,0.1c0-0.1,0-0.1,0-0.1
			c0,0,0-0.1,0-0.1c0,0,0,0.1-0.1,0.1c0,0,0,0.1,0,0.1c0,0,0-0.1,0-0.2c0,0.1,0,0.2-0.1,0.3S24,9.1,24,9.1C24,9.1,24,9,24.1,9
			C24,9,24,9.1,24,9.2c0,0,0,0.1,0,0.1c0,0,0,0.1,0,0.1c0,0.1,0,0.1-0.1,0.2c0,0.1-0.1,0.1-0.1,0.2c0-0.1,0.1-0.1,0.1-0.2
			c0-0.1,0-0.1,0.1-0.2C24,9.3,24,9.2,24,9.1c0-0.1,0-0.2,0.1-0.3c0-0.1,0-0.2,0.1-0.4c0,0.1,0,0.3,0,0.1c0-0.3,0.1-0.5,0.1-0.8
			c0,0,0,0.1-0.1,0.3c0,0.1,0,0.2,0,0.3c0,0.1,0,0.2-0.1,0.3c0-0.1,0-0.2,0.1-0.3c0,0,0,0.1,0,0.1c0,0.1,0,0.2,0,0.2
			c0,0.2-0.1,0.4-0.1,0.6c0-0.1,0.1-0.2,0.1-0.3C24,8.9,24,8.8,24,8.7c0,0,0,0,0,0c0,0.1,0,0.2-0.1,0.3c0,0.1-0.1,0.2-0.1,0.3
			c0,0.1-0.1,0.2-0.1,0.3c0,0.1-0.1,0.1-0.1,0.2c0.2-0.4,0.2-0.8,0.3-1c0,0,0,0-0.1,0.1c0,0.1-0.1,0.2-0.1,0.2
			c0-0.2,0.1-0.3,0.1-0.5C24,8.5,24,8.3,24,8.2c0,0,0,0.1,0,0.1c0,0.1,0,0.1-0.1,0.2c0,0.1,0,0.2-0.1,0.2c0,0.1,0,0.1-0.1,0.2
			c0-0.1,0,0,0,0.1c0,0.1,0,0.2-0.1,0.2c0-0.1,0,0-0.1,0.1c0-0.1,0,0.1-0.1,0.3c0,0,0,0.1-0.1,0.1c0,0,0,0.1-0.1,0.1
			c0,0,0,0.1,0,0.1c0,0,0,0,0,0c0,0,0-0.1,0.1-0.2c0-0.1,0.1-0.2,0.1-0.2c0,0.1-0.1,0.2-0.1,0.2c0,0.1-0.1,0.1-0.1,0.2
			c0,0.1-0.1,0.2-0.2,0.2c0,0,0.1-0.1,0.1-0.2c0-0.1,0.1-0.2,0.1-0.2c0,0,0,0.1,0,0c0,0.1-0.1,0.1-0.1,0.2c0,0,0,0.1-0.1,0.1
			c0,0.1-0.1,0.1-0.1,0.1c0,0,0,0-0.1,0.1c0-0.1,0.1-0.1,0.1-0.2c0-0.1,0.1-0.1,0.1-0.2c0-0.1,0.1-0.2,0.1-0.3
			c0.1-0.2,0.1-0.4,0.2-0.6c0.1-0.4,0.2-0.7,0.2-1.1c0,0.3-0.1,0.7-0.2,1.1s-0.2,0.6-0.3,0.8c0,0.1,0,0.1,0,0.1c0,0,0,0,0,0
			c0,0,0,0-0.1,0.1c-0.1,0.1,0.1-0.1,0,0.1c0,0,0,0-0.1,0.1c-0.1,0.2-0.2,0.5-0.5,0.8c-0.2,0.3-0.5,0.6-0.8,0.8
			c0.2-0.2,0.4-0.4,0.6-0.5c0,0,0.1-0.1,0.1-0.1c0,0,0.1-0.1,0.1-0.1c0.1-0.1,0.1-0.2,0.2-0.3c0,0-0.1,0.2-0.2,0.3
			c-0.1,0.1-0.2,0.2-0.2,0.3c0.1-0.1,0.4-0.5,0.3-0.3c0,0,0.1-0.1,0.1-0.2c0-0.1,0.1-0.1,0.1-0.1c-0.1,0.2-0.2,0.3-0.3,0.3
			C22.6,11,22.5,11,22.5,11c0,0,0.2-0.3,0.1-0.2c0,0-0.1,0.1-0.1,0.1c0,0-0.1,0.1-0.1,0.1c-0.1,0.1-0.2,0.2-0.2,0.2
			c-0.1,0.1,0,0.1-0.2,0.2c0.1-0.1,0.2-0.2,0.1-0.2c0.1-0.1,0.2-0.2,0.2-0.2c0,0,0-0.1,0.1-0.1c-0.1,0.1-0.3,0.3-0.5,0.5
			c-0.2,0.2-0.4,0.3-0.5,0.4c0,0,0.2-0.1,0.3-0.2c0.1-0.1,0.1-0.1,0.2-0.2c0.1-0.1,0.1-0.1,0.2-0.2c-0.2,0.2-0.2,0.2-0.1,0
			c0.1-0.1,0.3-0.3,0.5-0.5c0,0,0,0-0.1,0c0,0-0.1,0.1-0.1,0.1c0.1-0.1,0.3-0.4,0.4-0.5c-0.2,0.3-0.4,0.5-0.6,0.7
			c-0.1,0.1-0.2,0.2-0.3,0.3c-0.1,0-0.1,0.1-0.2,0.1c-0.1,0-0.1,0.1-0.2,0.1c-0.1,0.1,0.1-0.1,0.1,0c-0.1,0.1-0.1,0.1-0.2,0.2
			c-0.1,0-0.1,0.1-0.2,0.1c-0.1,0-0.1,0.1-0.2,0.1c-0.1,0-0.1,0.1-0.2,0.1c0,0,0.1-0.1,0.1,0c0,0-0.1,0.1-0.2,0.1
			c-0.1,0-0.1,0.1-0.2,0.1c-0.1,0-0.2,0.1-0.2,0.1c-0.1,0-0.2,0.1-0.2,0.1c-0.3,0.1-0.4,0.1,0,0c0.1,0,0.1-0.1,0.2-0.1
			c0,0,0,0,0.1,0c0,0,0.1,0,0.1-0.1c0,0-0.1,0.1,0,0c0,0,0,0,0.1,0c0,0,0,0,0.1,0c0,0,0.1-0.1,0.1-0.1c0.1,0,0.2-0.1,0.1-0.1
			c0.2-0.1,0,0,0.1-0.1c0.1,0,0.1,0,0.1,0c0,0,0,0,0,0c0,0,0.1,0,0.1-0.1c0,0,0,0,0.1-0.1c0.1,0,0.1-0.1,0.1-0.1
			c-0.1,0-0.1,0.1-0.2,0.1c0,0-0.1,0.1-0.1,0.1c0.1-0.1,0.2-0.1,0.3-0.2c0.1-0.1,0.1-0.1,0.2-0.1c0,0,0.1-0.1,0.1-0.1
			c0,0,0.1,0,0.1-0.1c0,0,0.1-0.1,0.1-0.1c-0.2,0.2-0.5,0.4-0.7,0.6c-0.2,0.1-0.4,0.3-0.6,0.4c-0.4,0.2-0.7,0.3-0.9,0.3
			c0.4-0.1,0.7-0.2,0.9-0.3s0.5-0.3,0.8-0.5c-0.1,0-0.4,0.2-0.2,0.2c0.2-0.1,0.2-0.1,0.3-0.2c0,0,0.1-0.1,0.1-0.1
			c0,0,0.1-0.1,0.2-0.2c0,0-0.1,0-0.1,0c0.1-0.1,0.2-0.1,0.2-0.2c0.1-0.1,0.1-0.1,0.1-0.1c-0.1,0.1-0.1,0.1-0.1,0.1c0,0,0,0,0,0
			c0,0,0.1-0.1,0.2-0.2c-0.1,0-0.1,0.1-0.1,0.1c0,0-0.1,0.1-0.1,0.1c-0.1,0.1-0.1,0.1-0.2,0.2c-0.1,0-0.1,0.1-0.2,0.1
			c0,0-0.1,0-0.1,0.1c0,0-0.1,0-0.1,0.1c0.1-0.1,0.2-0.1,0.2-0.2c-0.1,0.1-0.1,0.1-0.1,0.1c0,0,0,0-0.1,0.1c0,0,0.1-0.1,0,0
			c-0.2,0.1-0.5,0.2-0.7,0.4c-0.3,0.1-0.6,0.2-0.9,0.3c0,0,0.1,0,0.2-0.1c0.1,0,0.2,0,0.2-0.1c0.2-0.1,0.3-0.1,0.4-0.2
			c-0.1,0.1-0.4,0.1-0.6,0.2s-0.6,0.1-0.8,0.2c-0.1,0-0.3,0-0.4,0c-0.1,0-0.2,0-0.3,0c-0.1,0-0.1,0-0.1,0c0,0,0,0,0.1,0
			c-0.1,0-0.2,0-0.3,0c-0.1,0-0.2,0-0.3,0c0.1,0,0.2,0,0.2,0c-0.1,0,0,0,0,0c-0.4,0-0.7-0.1-0.8-0.1c0.4,0.1,0.7,0.1,1.1,0.1
			c0.3,0,0.7,0,1.1-0.1c0,0-0.1,0-0.1,0c0,0-0.1,0-0.2,0c-0.1,0-0.2,0-0.2,0c-0.1,0-0.2,0-0.2,0c0.1,0,0.2,0,0.1,0
			c-0.1,0-0.1,0-0.2,0c-0.1,0-0.1,0-0.2,0c0,0-0.1,0-0.1,0c0,0-0.1,0-0.1,0c-0.1,0-0.1,0-0.1,0c-0.1,0,0.2,0,0.1,0
			c-0.1,0-0.2,0-0.3,0c0,0-0.1,0-0.1,0c0,0,0,0-0.1,0c0,0-0.1,0-0.2,0c-0.1,0-0.2,0-0.3-0.1c-0.2-0.1-0.4-0.1-0.5-0.2
			c0.1,0,0.1,0,0.2,0c0,0,0.1,0,0.1,0c-0.2-0.1-0.2-0.1-0.3-0.1c0,0-0.1-0.1-0.2-0.1c0.1,0,0.1,0,0,0c0,0-0.1,0-0.1,0
			c-0.1-0.1-0.3-0.2-0.1-0.1c0,0-0.3-0.1-0.2-0.1c0.1,0,0.2,0.1,0.3,0.1c0.1,0,0.1,0.1,0.2,0.1c0.1,0,0.2,0.1,0.2,0.1
			c0.1,0,0,0-0.1-0.1c-0.1,0-0.1-0.1-0.2-0.1c-0.1,0-0.2-0.1-0.3-0.1c-0.2-0.1-0.4-0.2-0.5-0.2c-0.2-0.1-0.2-0.1-0.4-0.3
			c0,0,0.1,0,0.1,0.1c0,0,0,0-0.1,0c-0.2-0.2-0.1-0.1-0.1-0.2c-0.1-0.1,0,0-0.2-0.1c-0.2-0.2-0.4-0.4-0.6-0.7s-0.4-0.5-0.5-0.8
			c-0.1-0.3-0.2-0.6-0.3-0.8c0-0.1-0.1-0.3-0.1-0.4c0-0.1,0-0.1,0-0.2c0-0.1,0-0.1,0-0.1c0-0.1,0-0.2-0.1-0.2c0,0,0-0.2,0-0.3
			c0,0,0,0,0-0.1c0,0,0-0.3,0-0.5l0,0c0,0.1,0,0.3,0,0.2c0-0.1,0-0.2,0-0.3c0-0.1,0-0.1,0-0.2c0-0.1,0-0.1,0-0.2c0-0.1,0-0.2,0-0.3
			c0,0.1,0,0.1,0,0.2c0,0.1,0,0.1,0,0.2c0,0,0,0.1,0,0.1c0,0,0,0,0,0.1c0,0,0,0.1,0,0.1c0,0,0,0.1,0,0.2c0,0.1,0,0.2,0,0.3
			c0,0.2,0,0.5,0,0.8c0,0.3,0.1,0.6,0.2,0.8c0.1,0.2,0.2,0.4,0.2,0.5c0,0,0,0,0,0c-0.1-0.3-0.2-0.5-0.3-0.8
			c-0.1-0.3-0.1-0.6-0.1-0.8c0-0.1,0-0.3,0-0.4c0-0.1,0-0.3,0-0.4c0-0.2,0.1-0.4,0.1-0.6c0-0.1,0-0.2,0.1-0.5c0,0.1,0,0,0,0
			c0.1-0.2,0.1-0.2,0.1-0.2c0,0,0-0.1,0.1-0.2c0,0,0,0,0,0.1c0.1-0.1,0-0.1,0-0.1c0,0,0,0,0-0.1c0,0.1,0-0.1,0.1-0.1
			c0,0,0-0.1,0.1-0.2c0,0,0-0.1,0.1-0.1c0-0.1,0.1-0.1,0.1-0.2c0.2-0.2,0.4-0.5,0.7-0.8c0.3-0.3,0.6-0.5,0.9-0.7
			c0.1-0.1,0.3-0.2,0.4-0.2C15.9,2.9,16,2.9,16,2.9C15.8,2.9,15.7,3,15.6,3c0,0,0.3-0.2,0.1-0.1c-0.3,0.1-0.5,0.3-0.8,0.5
			c-0.2,0.2-0.5,0.4-0.7,0.6c-0.4,0.5-0.7,1-0.9,1.3c0-0.1,0.2-0.4,0.2-0.5c-0.3,0.4-0.4,0.8-0.5,1.1c0-0.2,0.1-0.3,0.2-0.5
			c0-0.1,0.1-0.1,0.1-0.2c0-0.1,0.1-0.2,0.1-0.3c0,0.1-0.1,0.2-0.1,0.1c0.1-0.2,0.2-0.4,0.4-0.6c0.1-0.2,0.3-0.4,0.5-0.6
			c0,0,0.1-0.1,0.1-0.1c0,0,0.1-0.1,0.1-0.1c0.1-0.1,0.2-0.2,0.3-0.2c0.1-0.1,0.2-0.1,0.3-0.2c0.1-0.1,0.2-0.1,0.3-0.2
			c-0.1,0-0.3,0.1-0.5,0.3c-0.2,0.2-0.5,0.4-0.7,0.6c0,0,0,0,0,0c0,0,0.1-0.1,0.1-0.1c-0.2,0.2-0.1,0.1-0.1,0.2
			c-0.1,0.1-0.3,0.3-0.4,0.5c-0.1,0.1-0.1,0.2-0.2,0.2c0,0.1-0.1,0.1-0.1,0.1c0.2-0.4,0.5-0.8,0.8-1.1l-0.2,0.2C14.1,3.9,14,4,14,4
			c0,0,0,0,0.1-0.1c0,0,0.1-0.1,0.1-0.1s0.1-0.1,0.1-0.2c0.2-0.2,0.4-0.4,0.3-0.3c0,0-0.1,0.1-0.1,0.1c0,0.1-0.1,0.1-0.2,0.2
			c-0.1,0.1-0.2,0.2-0.2,0.2c0,0,0.1-0.1,0.1-0.1c0,0,0.1-0.1,0.1-0.1c0.1-0.1,0.1-0.1,0.1-0.1c0,0.1-0.4,0.3-0.4,0.4
			c0-0.1,0,0-0.1,0c0,0,0.1-0.1,0.1-0.2c0.1-0.1,0.1-0.1,0.1-0.1c0,0-0.1,0.1-0.1,0.1c0,0-0.1,0.1-0.1,0.1L13.9,4L13.9,4
			c0,0-0.1,0.1-0.1,0.1c-0.1,0.2-0.3,0.4-0.4,0.5c-0.2,0.4-0.4,0.7-0.5,1c0.1-0.5,0.3-0.8,0.5-1.1c0-0.1,0.1-0.1,0.1-0.2
			c0-0.1,0.1-0.1,0.1-0.2c0-0.1,0.1-0.1,0.1-0.2c0,0,0.1-0.1,0.1-0.1c0,0,0.1-0.1,0.1-0.1c0,0,0.1-0.1,0.1-0.1
			c0.1-0.1,0.2-0.2,0.3-0.3c0.2-0.2,0.4-0.4,0.7-0.6c-0.1,0,0,0,0.2-0.2c0.2-0.1,0.5-0.3,0.6-0.3c-0.1,0-0.1,0.1-0.2,0.1
			c-0.1,0-0.1,0.1-0.2,0.1c0.3-0.2,0.7-0.4,1.2-0.5c0.4-0.1,0.9-0.2,1.3-0.2c-0.1,0-0.2,0-0.3,0c-0.1,0-0.2,0-0.2,0
			c0.2,0,0.5-0.1,0.8-0.1c0.1,0,0.1,0,0.2,0c0.1,0,0.1,0,0.2,0c0.1,0,0.2,0,0.2,0c0,0-0.1,0-0.1,0c0,0-0.1,0-0.1,0
			c-0.1,0-0.1,0-0.2,0c-0.1,0-0.1,0-0.2,0c0,0-0.1,0-0.1,0c0,0-0.1,0-0.1,0c-0.1,0-0.1,0-0.2,0c-0.1,0-0.1,0-0.2,0
			c-0.1,0-0.2,0-0.3,0c-0.4,0-0.9,0.1-1.3,0.3c-0.4,0.1-0.8,0.3-1.3,0.6c-0.1,0.1-0.2,0.2-0.3,0.2c-0.1,0.1-0.2,0.2-0.3,0.3
			C14,3.5,13.7,3.7,13.6,4c0,0,0.1-0.1,0.1-0.1c0,0.1-0.1,0.1-0.1,0.1c0,0,0,0,0,0.1c0,0,0,0,0,0.1c-0.2,0.3-0.3,0.5-0.4,0.6
			c-0.1,0.1,0,0,0-0.1c0,0,0-0.1,0.1-0.1c0,0,0,0,0-0.1c0,0,0-0.1,0-0.1c0-0.1,0.1-0.1,0.1-0.2c0-0.1,0.1-0.1,0.1-0.2
			c0.1-0.1,0.1-0.1,0.2-0.2c0.1-0.1,0.1-0.2,0.2-0.2C14,3.3,14.1,3.2,14.3,3c-0.3,0.3-0.6,0.5-0.8,0.8c-0.1,0.1-0.2,0.2-0.3,0.3
			c-0.1,0.1-0.1,0.2-0.2,0.3c-0.3,0.4-0.4,0.9-0.6,1.5c0.1-0.3,0.1-0.5,0.2-0.8l0-0.1l0-0.1c0-0.1,0.1-0.1,0.1-0.2
			C12.9,4.7,13,4.6,13,4.5c0.2-0.4,0.5-0.8,0.8-1.1c-0.2,0.2-0.4,0.5-0.6,0.7c-0.1,0.1-0.1,0.2-0.2,0.3c-0.1,0.1-0.1,0.2-0.1,0.2
			c0.2-0.4,0.4-0.7,0.6-1c0.2-0.3,0.4-0.5,0.7-0.7s0.5-0.4,0.8-0.6c0.3-0.2,0.7-0.4,1.1-0.5c-0.3,0.1-0.7,0.3-1,0.4
			c0.2-0.1,0.3-0.2,0.4-0.2c0,0,0.1,0,0.2-0.1c0.1,0,0.2-0.1,0.3-0.1c0.1,0-0.2,0,0,0c0,0,0.2,0,0.1,0c-0.1,0,0,0,0.1,0
			c0.1,0,0.2-0.1,0.2-0.1c-0.2,0.1-0.2,0.1-0.4,0.1c0,0,0,0,0,0c-0.2,0.1,0.2-0.1,0.1,0c-0.1,0-0.2,0.1-0.3,0.1
			c-0.1,0-0.2,0.1-0.3,0.1c0.2-0.1,0.5-0.3,0.8-0.4c0.3-0.1,0.7-0.2,1-0.3c-0.2,0-0.5,0.1-0.7,0.2c-0.1,0-0.1,0-0.2,0.1
			c-0.1,0-0.1,0-0.2,0.1c-0.1,0-0.2,0.1-0.3,0.1c0,0,0.1,0,0.1-0.1c0,0,0.1,0,0.1-0.1c0,0,0.1,0,0.1-0.1c0,0,0.1,0,0.1,0
			c0.2-0.1,0.3-0.1,0.4-0.1c0.1,0,0.2,0,0.3,0c0.1,0,0.2,0,0.2,0c0,0,0.1,0,0.1,0c0,0,0.1,0,0.1,0c0.1,0,0.1,0,0.2,0
			c0.2,0,0.3,0,0.3,0c0.1,0,0.1,0,0.1,0c0,0-0.2,0-0.4,0c-0.1,0-0.2,0-0.3,0c-0.1,0-0.2,0-0.3,0c-0.2,0-0.3,0-0.2,0c0,0,0.1,0,0.2,0
			c0.1,0,0.2,0,0.3,0c0.1,0,0.2,0,0.4,0c0.1,0,0.1,0,0.2,0c0.1,0,0.1,0,0.2,0c0.1,0,0.1,0,0.2,0c0.1,0,0.1,0,0.2,0
			c0.1,0,0.3,0,0.4,0c0.1,0,0.3,0,0.4,0.1c0.1,0,0.2,0,0.3,0.1c0,0-0.1,0-0.1,0c0.2,0,0.4,0.1,0.6,0.2c0.1,0,0.2,0.1,0.2,0.1
			c0.1,0,0.1,0,0.2,0.1c0,0-0.1,0-0.1,0c0,0,0,0,0.1,0c0.1,0,0.1,0.1,0.1,0.1c0,0-0.1-0.1-0.2-0.1c-0.1,0-0.1-0.1-0.1-0.1
			c0.1,0,0.6,0.3,0.5,0.2c-0.1,0-0.2-0.1-0.3-0.1c0.2,0.1,0.5,0.2,0.7,0.3c-0.1,0-0.1-0.1-0.2-0.1c-0.1,0-0.1-0.1-0.2-0.1
			c0,0-0.1,0-0.1,0c0,0,0,0-0.1,0c0,0-0.1,0-0.1-0.1c-0.1,0-0.2-0.1-0.3-0.1c-0.1,0-0.2-0.1-0.3-0.1c0,0,0.2,0.1,0.2,0.1
			c-0.1,0-0.2-0.1-0.3-0.1c-0.1,0-0.2,0-0.2-0.1c-0.1,0-0.2,0-0.3-0.1c0.5,0.1,0.9,0.2,1.2,0.4c0.3,0.1,0.6,0.3,0.9,0.5
			c0.5,0.3,0.9,0.6,1.3,1c0.3,0.3,0.5,0.6,0.8,1c0.2,0.4,0.4,0.8,0.5,1.1c0,0,0-0.1-0.1-0.3C24,4.8,24,4.8,24,4.7
			c0-0.1-0.1-0.2-0.1-0.3C24.1,4.9,24.3,5.4,24.4,5.7L24.4,5.7z M23.5,3.3L23.5,3.3c-0.1-0.1-0.1-0.2-0.2-0.2c0,0-0.1-0.1-0.1-0.1
			c0,0-0.1-0.1-0.1-0.1c-0.1-0.1-0.2-0.2-0.3-0.3c-0.1-0.1-0.2-0.2-0.3-0.3c0,0,0.1,0.1,0.3,0.2c0.1,0.1,0.1,0.1,0.2,0.2
			S23,2.8,23,2.8c-0.1-0.1-0.3-0.2-0.4-0.4c-0.1-0.1-0.2-0.2-0.4-0.3C22,2,21.7,1.8,21.4,1.6c0,0,0.1,0,0.1,0.1
			c0.1,0,0.1,0.1,0.2,0.1c0,0,0,0,0,0c-0.1,0-0.2-0.1-0.3-0.2c-0.3-0.1-0.6-0.3-1-0.4C20,1,19.7,0.9,19.6,0.9c-0.1,0-0.1,0,0,0
			c0,0,0.1,0,0.2,0c0.1,0,0.2,0,0.3,0.1c-0.1,0-0.4-0.1-0.7-0.2c-0.2,0-0.3-0.1-0.5-0.1c-0.1,0-0.2,0-0.2,0c-0.1,0-0.2,0-0.2,0
			c0.5,0,1,0.1,1.5,0.2s1,0.3,1.5,0.6c0.5,0.3,0.9,0.6,1.2,0.9C23,2.7,23.2,3,23.5,3.3L23.5,3.3z M13,7.6L13,7.6
			C12.9,7.6,12.9,7.5,13,7.6c0-0.1,0-0.2,0-0.3c0-0.1,0-0.1,0-0.2c0-0.1,0-0.1,0-0.2c0-0.1,0-0.1,0-0.2c0-0.1,0-0.1,0-0.1
			c0-0.1,0-0.1,0-0.1c0-0.1,0-0.1,0-0.1c0,0,0,0,0-0.1c0,0,0-0.1,0-0.2c0-0.1,0.1-0.3,0.2-0.6c0,0.1,0,0.2-0.1,0.3
			c0,0.1-0.1,0.3-0.1,0.4C13,6.6,12.9,7.1,13,7.6L13,7.6z M10.6,7.9L10.6,7.9c0-0.1,0,0.1,0,0.2c0,0.1,0,0.2,0,0.2
			c0,0.1,0,0.1,0,0.2c0,0,0-0.1,0-0.2c0,0.1,0,0.1,0,0.2c0,0.1,0,0.1,0,0.2c0,0.1,0-0.1,0-0.2c0.1,0.3,0.1,0.5,0.2,0.7
			c0,0.1,0.1,0.2,0.1,0.4c0,0.1,0.1,0.2,0.1,0.4c0,0.2-0.1-0.2-0.1-0.3c-0.1-0.2,0-0.2,0-0.2c0,0,0,0-0.1-0.2c0,0,0,0.1,0,0.2
			c-0.1-0.2-0.1-0.3-0.1-0.4c0-0.1,0-0.1,0-0.3c0-0.2,0,0.1,0,0c0-0.1,0-0.3-0.1-0.4c0-0.1,0-0.2,0-0.4c0,0.1,0,0.2,0,0.2
			c0,0,0-0.1,0-0.2C10.6,8,10.6,7.9,10.6,7.9L10.6,7.9z M15.6,12L15.6,12c0.3,0.2,0.8,0.4,1.2,0.5c0.4,0.1,0.9,0.2,1.2,0.2
			c-0.5,0-0.8-0.1-1.2-0.2c-0.1,0-0.2-0.1-0.3-0.1c0,0-0.1,0-0.1-0.1c0,0-0.1,0-0.1-0.1C16,12.3,15.8,12.2,15.6,12z M19.2,14.8
			L19.2,14.8c0.5-0.1-0.2,0,0.3-0.1c0.2,0,0,0,0.1-0.1c0.1,0,0.2,0,0.3-0.1c0,0-0.2,0.1-0.3,0.1c0,0,0,0,0.1-0.1
			c0.1,0,0.1,0,0.2-0.1c0.1,0,0.1,0,0.2-0.1c-0.2,0.1-0.2,0.1-0.2,0.1c0.1,0,0.2-0.1,0.3-0.1c0.1,0,0.1,0,0.1,0
			c0.1,0,0.2-0.1,0.2-0.1c0,0,0.1,0,0.2-0.1c0,0-0.1,0-0.2,0.1c0.1,0,0.2-0.1,0.4-0.1c0.1,0-0.3,0.2-0.8,0.3c0.2,0,0.3-0.1,0.4-0.1
			c0.1,0,0.2-0.1,0.5-0.2c-0.1,0-0.1,0,0,0c0.1,0,0.1-0.1-0.1,0c0.2-0.1,0.4-0.2,0.5-0.3c0.1,0,0.2-0.1,0.3-0.2c0,0,0.1-0.1,0.2-0.1
			c0.1,0,0.1-0.1,0.2-0.1c0,0-0.1,0.1-0.2,0.1c0.3-0.2,0.5-0.4,0.6-0.4c0.1-0.1,0.1-0.1,0.1,0c-0.1,0.1-0.3,0.2-0.2,0.2
			c0,0-0.1,0.1-0.1,0.1c-0.1,0-0.2,0.1-0.4,0.2c-0.2,0.1-0.3,0.2-0.4,0.2c-0.2,0.1,0.2-0.1,0,0c0.1,0,0.1-0.1,0.2-0.1
			c0,0,0.1-0.1,0.1-0.1c0.1,0,0.2-0.1,0.2-0.1c0.1,0,0.1-0.1,0.2-0.1c0.1,0,0.1-0.1,0.2-0.1c0,0,0,0,0,0c-0.1,0,0,0-0.1,0
			c0,0-0.1,0.1-0.1,0.1c-0.1,0-0.1,0.1-0.2,0.1c-0.1,0.1-0.1,0.1,0.1,0c-0.4,0.3-0.9,0.5-1.4,0.7c0.2,0-0.2,0.1,0.1,0
			c0.2,0-0.3,0.1-0.3,0.1c-0.1,0-0.1,0,0,0c0,0-0.3,0.1-0.4,0.1c0.2-0.1,0.1,0-0.2,0c-0.1,0-0.2,0-0.2,0.1c-0.1,0-0.2,0-0.2,0.1
			C19.4,14.8,19.3,14.8,19.2,14.8L19.2,14.8z M21.8,13.7L21.8,13.7c0.4-0.3,0.8-0.6,1.2-0.9c0.1-0.1,0.1-0.1,0,0
			c-0.1,0-0.1,0.1-0.2,0.2c0.3-0.2,0,0.1-0.2,0.2c-0.1,0.1,0,0,0,0c0,0,0,0-0.2,0.2c0,0,0.1,0,0.2-0.2c0,0.1-0.1,0.1-0.2,0.2
			c0,0-0.1,0.1-0.1,0.1c0,0-0.1,0.1-0.1,0.1C22,13.7,21.9,13.7,21.8,13.7c0,0.1-0.1,0.2-0.2,0.2c0.2-0.1,0.3-0.2,0.4-0.2
			c0.1-0.1,0.1-0.1,0.2-0.1c0.1,0,0,0-0.1,0.1c0,0-0.1,0-0.1,0.1C21.9,13.7,21.8,13.7,21.8,13.7c-0.1,0.1-0.2,0.2-0.3,0.2
			c-0.1,0-0.1,0.1-0.2,0.1c-0.1,0-0.1,0.1-0.2,0.1c-0.1,0.1-0.3,0.1-0.4,0.2c0.2-0.1,0.5-0.2,0.8-0.4C21.6,13.8,21.7,13.7,21.8,13.7
			C21.8,13.6,21.8,13.6,21.8,13.7L21.8,13.7z"/>
		<path class="st0" d="M56,23.7V21h-8.6l8.6-9.8V8.5H43v2.7h8.6L43,21v2.7C43,23.7,56,23.7,56,23.7z M58.5,8.5h12.3v2.7h-8.9v3.2
			h7.7v2.7h-7.7v4h8.9v2.7H58.5V8.5L58.5,8.5z M73.2,8.5h3.4v2.3l1.8-2.3h5c0.7,0,1.4,0.1,1.9,0.3c0.5,0.2,1,0.5,1.3,0.9
			c0.3,0.4,0.6,0.8,0.7,1.3c0.2,0.5,0.2,1,0.2,1.6v11h-3.4V13.3c0-0.6-0.1-1.1-0.3-1.4c-0.2-0.3-0.7-0.5-1.4-0.5h-5.9v12.3h-3.4
			L73.2,8.5L73.2,8.5z M90.1,8.5v2.7h4.8v12.5h3.4V11.2h4.8V8.5H90.1L90.1,8.5z M105.5,8.5h12.3v2.7h-8.9v3.2h7.7v2.7h-7.7v4h8.9
			v2.7h-12.3V8.5L105.5,8.5z M119.9,16.1c0-1,0.2-1.9,0.5-2.8c0.3-0.9,0.8-1.7,1.4-2.4c0.6-0.7,1.3-1.3,2.2-1.7s1.8-0.6,2.8-0.6h7.5
			v2.7h-7.4c-0.4,0-0.9,0.1-1.3,0.4c-0.5,0.3-0.9,0.6-1.3,1.1c-0.4,0.5-0.7,1-1,1.6s-0.4,1.2-0.4,1.8c0,0.6,0.1,1.2,0.4,1.8
			c0.2,0.6,0.6,1.1,1,1.6c0.4,0.5,0.8,0.8,1.3,1.1c0.5,0.3,1,0.4,1.5,0.4h7.2v2.7h-7.5c-1.1,0-2.1-0.2-2.9-0.7
			c-0.8-0.5-1.6-1.1-2.1-1.8c-0.6-0.7-1-1.5-1.3-2.4C120,17.9,119.9,17,119.9,16.1L119.9,16.1z M147.7,8.5v5.8h-7.6V8.5h-3.4v15.2
			h3.4v-6.7h7.6v6.7h3.4V8.5H147.7z"/>
	</g>
</g>
</svg>
